<svg width="35" height="34" viewBox="0 0 35 34" fill="none" xmlns="http://www.w3.org/2000/svg">
<circle cx="26.5" cy="25.5" r="8.5" fill="#F3EC18"/>
<g clip-path="url(#clip0_390_4496)">
<path d="M32.4466 14.7174L29.3065 6.45657C29.1213 5.96729 28.7474 5.5736 28.2689 5.36439C27.7838 5.14782 27.232 5.13646 26.7389 5.33297C26.2471 5.52414 25.8539 5.90847 25.65 6.39641C25.4474 6.87566 25.4481 7.41774 25.6527 7.89632L27.1161 11.3533C26.0905 11.2477 25.1735 11.9957 25.0682 13.0243C25.0616 13.0878 25.0582 13.1513 25.0582 13.2148V17.363C25.0576 17.7828 24.9603 18.1965 24.7737 18.5715C23.9114 20.3067 23.4609 22.219 23.4589 24.158V25.5142C23.1644 25.5142 22.9258 25.7535 22.9258 26.049V33.0004H23.992V26.5837H30.3894V33.0004H31.4556V26.049C31.4556 25.7535 31.2171 25.5142 30.9225 25.5142H30.7193L32.3719 21.5218C33.2569 19.3455 33.2842 16.9125 32.4466 14.7174ZM31.385 21.1154L29.5637 25.5142H24.5245V24.1587C24.5265 22.3854 24.9383 20.6369 25.7266 19.0501C25.9872 18.526 26.1231 17.9485 26.1238 17.363V13.2155C26.1245 12.773 26.483 12.4141 26.9242 12.4148C27.3526 12.4154 27.7038 12.7543 27.7218 13.1834C27.7225 13.2048 27.7232 19.6316 27.7232 19.6316H28.7894V13.2148C28.7894 13.1774 28.7881 13.1407 28.7861 13.1039C28.7694 12.7062 28.6814 12.3152 28.5262 11.9489L26.6336 7.47856C26.5423 7.26534 26.5423 7.02404 26.6323 6.81015C26.7256 6.58824 26.9048 6.41379 27.1287 6.32756C27.3573 6.23666 27.6132 6.24201 27.8378 6.34227C28.055 6.43651 28.2256 6.61498 28.3103 6.83689L31.4503 15.0971C32.1913 17.0388 32.168 19.1904 31.385 21.1154Z" fill="black"/>
<path d="M9.59734 25.5136V24.158C9.59534 22.219 9.14486 20.3067 8.28255 18.5715C8.09596 18.1958 7.99866 17.7821 7.998 17.363V13.2149C7.99733 12.1808 7.16167 11.3426 6.13009 11.3433C6.06678 11.3433 6.00281 11.3466 5.94017 11.3533L7.40357 7.89565C7.60749 7.41707 7.60815 6.87566 7.40624 6.39641C7.20232 5.9078 6.80915 5.52414 6.31735 5.33297C5.82355 5.13646 5.27244 5.14782 4.7873 5.36439C4.30883 5.5736 3.93498 5.96729 3.74973 6.45657L0.609006 14.7168C-0.228652 16.9138 -0.20133 19.3482 0.685642 21.5252L2.33697 25.5136H2.13372C1.83917 25.5136 1.6006 25.7529 1.6006 26.0483V32.9998H2.66683V26.583H9.06423V32.9998H10.1305V26.0483C10.1305 25.7529 9.89189 25.5136 9.59734 25.5136ZM1.67191 21.1181C0.888226 19.1924 0.864236 17.0402 1.60527 15.0971L4.74532 6.83689C4.82995 6.61498 5.00055 6.43651 5.2178 6.34227C5.44237 6.24201 5.69827 6.23666 5.92684 6.32756C6.15075 6.41379 6.33001 6.58824 6.4233 6.81015C6.51327 7.02338 6.51327 7.26467 6.42264 7.4779L4.53008 11.9482C4.37481 12.3145 4.28684 12.7055 4.27018 13.1032C4.26818 13.14 4.26618 19.6309 4.26618 19.6309H5.33241C5.33241 19.6309 5.33308 13.2042 5.33375 13.1828C5.35174 12.7403 5.72359 12.3967 6.16474 12.4148C6.59257 12.4321 6.93043 12.7851 6.9311 13.2149V17.363C6.93176 17.9485 7.06771 18.526 7.32827 19.0501C8.11728 20.6369 8.52845 22.3854 8.53044 24.1587V25.5136H3.49183L1.67191 21.1181Z" fill="black"/>
<path d="M16.5275 25.5142C14.4957 25.5149 12.4985 24.9862 10.7319 23.9802L10.2041 24.9093C14.1258 27.1418 18.9285 27.1418 22.8503 24.9093L22.3225 23.9802C20.5566 24.9862 18.5594 25.5149 16.5275 25.5142Z" fill="black"/>
<path d="M16.5278 1.98564C19.7059 1.97494 22.7506 3.26831 24.9537 5.56564L25.7194 4.8217C20.8034 -0.270244 12.7034 -0.400584 7.62746 4.53027C7.52884 4.62585 7.43221 4.72277 7.33691 4.8217L8.1026 5.56564C10.3057 3.26831 13.3498 1.97494 16.5278 1.98564Z" fill="black"/>
<path d="M12.0379 23.4524L12.4871 22.4825C12.1399 22.3208 11.8027 22.1377 11.4768 21.9358L10.915 22.8448C11.2769 23.0694 11.6521 23.2726 12.0379 23.4524Z" fill="black"/>
<path d="M16.5284 23.3748C15.4808 23.3761 14.4406 23.205 13.4483 22.8681L13.1064 23.8808C16.3458 24.9776 19.913 24.4536 22.7019 22.4697L22.0841 21.5981C20.4621 22.7585 18.5196 23.3795 16.5284 23.3748Z" fill="black"/>
<path d="M14.8447 3.18741L15.012 4.2435C15.5131 4.16396 16.0196 4.12452 16.5274 4.12452C18.9671 4.12118 21.3161 5.05294 23.0927 6.72998L23.8224 5.94994C21.8485 4.08642 19.2383 3.05105 16.5274 3.05507C15.9636 3.05507 15.4012 3.09918 14.8447 3.18741Z" fill="black"/>
<path d="M25.0576 27.653H26.1238V28.7224H25.0576V27.653Z" fill="black"/>
<path d="M6.93164 27.653H7.99787V28.7224H6.93164V27.653Z" fill="black"/>
<path d="M14.445 11.0782V17.9218H13.5032V11.9288H12V11.0782H14.445Z" fill="black"/>
<path d="M19.4598 18C18.7939 18 18.1914 17.8501 17.6522 17.5503C17.1195 17.2439 16.7009 16.8268 16.3964 16.2989C16.092 15.7644 15.9398 15.1648 15.9398 14.5C15.9398 13.8352 16.092 13.2388 16.3964 12.7109C16.7009 12.1764 17.1226 11.7593 17.6618 11.4595C18.2009 11.1532 18.8034 11 19.4694 11C19.9894 11 20.4651 11.0912 20.8964 11.2737C21.3277 11.4497 21.6956 11.7137 22 12.0656L21.3816 12.6816C20.8806 12.1406 20.2558 11.8701 19.5074 11.8701C19.0127 11.8701 18.5656 11.9842 18.166 12.2123C17.7664 12.4404 17.4525 12.7565 17.2241 13.1606C17.0021 13.5582 16.8912 14.0047 16.8912 14.5C16.8912 14.9953 17.0021 15.4451 17.2241 15.8492C17.4525 16.2467 17.7664 16.5596 18.166 16.7877C18.5656 17.0158 19.0127 17.1299 19.5074 17.1299C20.2495 17.1299 20.8742 16.8561 21.3816 16.3087L22 16.9246C21.6956 17.2765 21.3245 17.5438 20.8869 17.7263C20.4556 17.9088 19.9799 18 19.4598 18Z" fill="black"/>
</g>
<defs>
<clipPath id="clip0_390_4496">
<rect width="34" height="33" fill="white"/>
</clipPath>
</defs>
</svg>
