<svg width="34" height="35" viewBox="0 0 34 35" fill="none" xmlns="http://www.w3.org/2000/svg">
<rect x="34" y="0.787109" width="34" height="34" rx="17" transform="rotate(90 34 0.787109)" fill="#E8CD06"/>
<path d="M17.0013 16.704L12.5494 21.1557C12.4271 21.2783 12.2636 21.3457 12.0893 21.3457C11.9148 21.3457 11.7514 21.2783 11.6289 21.1557L11.239 20.7656C11.1164 20.6433 11.0488 20.4797 11.0488 20.3053C11.0488 20.131 11.1164 19.9676 11.239 19.8451L16.5395 14.5446C16.6623 14.4216 16.8265 14.3543 17.0011 14.3547C17.1764 14.3543 17.3403 14.4215 17.4633 14.5446L22.7586 19.8402C22.8813 19.9626 22.9488 20.126 22.9488 20.3005C22.9488 20.4748 22.8813 20.6382 22.7586 20.7608L22.3687 21.1508C22.115 21.4046 21.7018 21.4046 21.4482 21.1508L17.0013 16.704Z" fill="black"/>
</svg>
