<svg width="35" height="35" viewBox="0 0 35 35" fill="none" xmlns="http://www.w3.org/2000/svg">
<circle cx="26.5" cy="26.5" r="8.5" fill="#F3EC18"/>
<path d="M29.5078 13.7776C29.4471 13.7706 29.3884 13.7517 29.3351 13.7221C29.2817 13.6924 29.2348 13.6525 29.1968 13.6047C29.1589 13.5569 29.1307 13.502 29.114 13.4433C29.0973 13.3846 29.0922 13.3232 29.0992 13.2625L29.3649 10.9636C29.3789 10.8411 29.4411 10.7292 29.5377 10.6525C29.6343 10.5758 29.7574 10.5407 29.8799 10.5548C30.0024 10.5689 30.1143 10.631 30.191 10.7276C30.2676 10.8242 30.3028 10.9473 30.2887 11.0698L30.0231 13.3688C30.01 13.482 29.9558 13.5865 29.8708 13.6623C29.7858 13.7382 29.6759 13.7803 29.5619 13.7805C29.5438 13.7805 29.5258 13.7795 29.5078 13.7776ZM32.7383 7.44536V9.03911C32.7382 9.16237 32.6892 9.28057 32.6021 9.36773C32.5149 9.45488 32.3967 9.50388 32.2734 9.50395H32.0718L30.5971 22.323C30.5851 22.4272 30.5382 22.5243 30.4641 22.5985C30.3899 22.6727 30.2928 22.7196 30.1886 22.7316L28.9797 22.8702C28.8589 22.8811 28.7386 22.8443 28.6445 22.7678C28.5504 22.6912 28.49 22.5809 28.4761 22.4604C28.4623 22.3399 28.4961 22.2187 28.5703 22.1228C28.6445 22.0268 28.7533 21.9637 28.8734 21.9469L29.7171 21.8494L31.1374 9.50289H7.18225L9.31495 24.2068L26.2926 22.246C26.4147 22.2327 26.5371 22.2683 26.633 22.3449C26.7289 22.4215 26.7907 22.533 26.8047 22.655C26.8187 22.777 26.7839 22.8995 26.7079 22.9959C26.6319 23.0924 26.5208 23.1548 26.3989 23.1696L9.26873 25.1493L8.26706 28.2026C8.21156 28.3721 8.197 28.5524 8.22456 28.7286C8.25213 28.9048 8.32104 29.072 8.42565 29.2165C8.53026 29.3609 8.6676 29.4786 8.82642 29.5597C8.98524 29.6409 9.16102 29.6833 9.33939 29.6835H10.5844C10.6723 29.2062 10.8921 28.763 11.2189 28.4043C11.5458 28.0455 11.9666 27.7854 12.4337 27.6536C12.552 27.6216 12.6782 27.6377 12.7848 27.6984C12.8913 27.759 12.9696 27.8593 13.0026 27.9774C13.0355 28.0955 13.0205 28.2218 12.9608 28.3288C12.901 28.4359 12.8014 28.515 12.6836 28.549C12.386 28.6321 12.1175 28.7965 11.9083 29.0239C11.6991 29.2512 11.5575 29.5324 11.4994 29.8359C11.4412 30.1393 11.4689 30.4529 11.5793 30.7415C11.6897 31.0301 11.8784 31.2821 12.1242 31.4693C12.37 31.6565 12.6632 31.7713 12.9707 31.801C13.2782 31.8307 13.5879 31.774 13.865 31.6372C14.142 31.5005 14.3754 31.2892 14.5389 31.027C14.7025 30.7649 14.7896 30.4623 14.7905 30.1534V30.1483V30.1433C14.7907 29.9184 14.7448 29.6959 14.6556 29.4895C14.5665 29.283 14.4361 29.097 14.2723 28.9429C14.1828 28.8581 14.1307 28.7411 14.1275 28.6179C14.1242 28.4946 14.1701 28.3751 14.2549 28.2856C14.3398 28.1962 14.4567 28.1441 14.58 28.1408C14.7032 28.1375 14.8227 28.1834 14.9122 28.2682C15.3096 28.6476 15.5769 29.143 15.6756 29.6835H23.2836C23.392 29.0873 23.7062 28.548 24.1714 28.1597C24.6366 27.7714 25.2234 27.5587 25.8294 27.5587C26.4354 27.5587 27.0221 27.7714 27.4874 28.1597C27.9526 28.548 28.2668 29.0873 28.3751 29.6835H30.4805C30.6038 29.6835 30.722 29.7325 30.8092 29.8196C30.8963 29.9068 30.9453 30.025 30.9453 30.1483C30.9453 30.2716 30.8963 30.3898 30.8092 30.477C30.722 30.5642 30.6038 30.6132 30.4805 30.6132H28.3751C28.2668 31.2094 27.9526 31.7487 27.4874 32.137C27.0221 32.5253 26.4354 32.7379 25.8294 32.7379C25.2234 32.7379 24.6366 32.5253 24.1714 32.137C23.7062 31.7487 23.392 31.2094 23.2836 30.6132H15.6764C15.568 31.2094 15.2539 31.7487 14.7886 32.137C14.3234 32.5253 13.7366 32.7379 13.1307 32.7379C12.5247 32.7379 11.9379 32.5253 11.4727 32.137C11.0074 31.7487 10.6933 31.2094 10.5849 30.6132H9.33939C9.01418 30.6129 8.69366 30.5356 8.40408 30.3876C8.1145 30.2396 7.8641 30.0251 7.67337 29.7617C7.48265 29.4982 7.35703 29.1934 7.3068 28.8721C7.25657 28.5508 7.28316 28.2221 7.38439 27.9131L8.44476 24.6804L5.3489 3.33959L1.58845 2.17031C1.47073 2.13368 1.37239 2.05178 1.31505 1.94264C1.25771 1.8335 1.24608 1.70605 1.28271 1.58833C1.31935 1.47061 1.40124 1.37226 1.51039 1.31493C1.61953 1.25759 1.74698 1.24596 1.8647 1.28259L5.90459 2.539C5.98843 2.56503 6.06319 2.61427 6.12021 2.68102C6.17723 2.74777 6.21418 2.82931 6.22679 2.91619L6.81621 6.98025H12.7234C12.8467 6.98025 12.965 7.02922 13.0521 7.1164C13.1393 7.20357 13.1883 7.32181 13.1883 7.44509C13.1883 7.56838 13.1393 7.68661 13.0521 7.77379C12.965 7.86096 12.8467 7.90994 12.7234 7.90994H6.95195L7.04837 8.574H31.8086V7.90994H17.8965C17.7732 7.90994 17.655 7.86096 17.5678 7.77379C17.4806 7.68661 17.4317 7.56838 17.4317 7.44509C17.4317 7.32181 17.4806 7.20357 17.5678 7.1164C17.655 7.02922 17.7732 6.98025 17.8965 6.98025H32.2734C32.3345 6.98025 32.395 6.99228 32.4514 7.01566C32.5078 7.03904 32.5591 7.0733 32.6022 7.11649C32.6454 7.15969 32.6796 7.21096 32.703 7.26739C32.7263 7.32382 32.7383 7.38429 32.7383 7.44536ZM24.1692 30.1483C24.1692 30.4767 24.2666 30.7977 24.449 31.0707C24.6314 31.3437 24.8907 31.5565 25.1941 31.6821C25.4974 31.8078 25.8312 31.8406 26.1533 31.7766C26.4753 31.7125 26.7711 31.5544 27.0033 31.3222C27.2355 31.0901 27.3936 30.7943 27.4576 30.4722C27.5217 30.1502 27.4888 29.8164 27.3632 29.513C27.2375 29.2097 27.0247 28.9504 26.7517 28.768C26.4787 28.5855 26.1577 28.4882 25.8294 28.4882C25.3892 28.4887 24.9673 28.6637 24.656 28.975C24.3448 29.2862 24.1697 29.7082 24.1692 30.1483ZM14.5927 7.9102H15.904C16.0273 7.9102 16.1456 7.86123 16.2327 7.77405C16.3199 7.68688 16.3689 7.56864 16.3689 7.44536C16.3689 7.32207 16.3199 7.20384 16.2327 7.11666C16.1456 7.02949 16.0273 6.98052 15.904 6.98052H14.5927C14.4694 6.98052 14.3511 7.02949 14.264 7.11666C14.1768 7.20384 14.1278 7.32207 14.1278 7.44536C14.1278 7.56864 14.1768 7.68688 14.264 7.77405C14.3511 7.86123 14.4694 7.9102 14.5927 7.9102ZM13.7227 12.0694C13.7854 12.0694 13.8473 12.0821 13.9049 12.1067C13.9625 12.1313 14.0146 12.1673 14.0579 12.2125C14.1013 12.2577 14.1351 12.3112 14.1573 12.3697C14.1795 12.4283 14.1896 12.4907 14.187 12.5533L13.9235 18.9283C13.9187 19.0482 13.8676 19.1615 13.7811 19.2446C13.6945 19.3277 13.5792 19.3741 13.4592 19.3741H11.9855C11.8655 19.3741 11.7502 19.3277 11.6636 19.2446C11.577 19.1616 11.5259 19.0482 11.521 18.9283L11.2575 12.5533C11.2549 12.4907 11.2651 12.4283 11.2873 12.3697C11.3095 12.3111 11.3433 12.2576 11.3867 12.2124C11.43 12.1672 11.4821 12.1312 11.5398 12.1066C11.5974 12.0821 11.6594 12.0694 11.722 12.0694H13.7227ZM13.2382 12.999H12.2065L12.4315 18.4444H13.0132L13.2382 12.999ZM18.0025 12.0694C18.0651 12.0694 18.1271 12.0821 18.1848 12.1066C18.2424 12.1312 18.2945 12.1672 18.3379 12.2124C18.3813 12.2576 18.4151 12.3111 18.4373 12.3697C18.4595 12.4283 18.4696 12.4907 18.4671 12.5533L18.2036 18.9283C18.1987 19.0482 18.1476 19.1615 18.0611 19.2446C17.9745 19.3277 17.8592 19.3741 17.7392 19.3741H16.2653C16.1453 19.3741 16.03 19.3277 15.9434 19.2446C15.8569 19.1615 15.8059 19.0482 15.801 18.9283L15.5375 12.5533C15.5349 12.4907 15.5451 12.4283 15.5673 12.3697C15.5895 12.3111 15.6233 12.2576 15.6667 12.2124C15.7101 12.1672 15.7621 12.1312 15.8198 12.1066C15.8774 12.0821 15.9394 12.0694 16.0021 12.0694H18.0025ZM17.5182 12.999H16.4863L16.7115 18.4444H17.2922L17.5182 12.999ZM22.2825 12.0694C22.3452 12.0694 22.4072 12.0821 22.4648 12.1066C22.5224 12.1312 22.5745 12.1672 22.6179 12.2124C22.6613 12.2576 22.6951 12.3111 22.7173 12.3697C22.7395 12.4283 22.7496 12.4907 22.7471 12.5533L22.4836 18.9283C22.4786 19.048 22.4277 19.1611 22.3414 19.2442C22.2551 19.3272 22.1401 19.3737 22.0203 19.3741H20.5453C20.4254 19.374 20.3101 19.3276 20.2236 19.2445C20.1371 19.1615 20.0861 19.0482 20.0813 18.9283L19.8178 12.5533C19.8152 12.4907 19.8253 12.4283 19.8475 12.3697C19.8697 12.3112 19.9035 12.2577 19.9469 12.2125C19.9902 12.1673 20.0423 12.1313 20.0999 12.1067C20.1575 12.0821 20.2194 12.0694 20.2821 12.0694H22.2825ZM21.798 12.999H20.7663L20.9913 18.4444H21.573L21.798 12.999ZM26.5625 12.0694C26.6252 12.0694 26.6872 12.0821 26.7448 12.1066C26.8024 12.1312 26.8545 12.1672 26.8979 12.2124C26.9413 12.2576 26.9751 12.3111 26.9973 12.3697C27.0195 12.4283 27.0296 12.4907 27.0271 12.5533L26.7636 18.9283C26.7587 19.0482 26.7075 19.1616 26.621 19.2446C26.5344 19.3277 26.419 19.3741 26.299 19.3741H24.8253C24.7053 19.3741 24.59 19.3277 24.5034 19.2446C24.4168 19.1616 24.3657 19.0482 24.3607 18.9283L24.0975 12.5533C24.095 12.4907 24.1051 12.4283 24.1273 12.3697C24.1495 12.3112 24.1833 12.2577 24.2266 12.2125C24.27 12.1673 24.322 12.1313 24.3796 12.1067C24.4372 12.0821 24.4992 12.0694 24.5618 12.0694H26.5625ZM26.078 12.999H25.0463L25.2713 18.4444H25.853L26.078 12.999Z" fill="black"/>
</svg>
