<svg width="36" height="34" viewBox="0 0 36 34" fill="none" xmlns="http://www.w3.org/2000/svg">
<circle cx="27.5" cy="11.5" r="8.5" fill="#F3EC18"/>
<g clip-path="url(#clip0_395_4502)">
<path d="M34 17.5484V13.1483C34 11.9281 33.2144 10.8725 32.0464 10.5222L28.5161 9.46311V8.63024C29.5094 7.93585 30.1613 6.7856 30.1613 5.48456V3.83871C30.1613 1.72194 28.4394 0 26.3226 0C24.2058 0 22.4839 1.72194 22.4839 3.83871V5.48387C22.4839 6.78492 23.1358 7.93516 24.129 8.62956V9.46242L21.0183 10.396C19.8509 9.35206 18.3634 8.77419 16.7841 8.77419C15.2109 8.77419 13.7721 9.35069 12.6602 10.3001L9.87097 9.46311V8.63024C10.8642 7.93585 11.5161 6.7856 11.5161 5.48456V3.83871C11.5161 1.72194 9.79419 0 7.67742 0C5.56065 0 3.83871 1.72194 3.83871 3.83871V5.48387C3.83871 6.78492 4.4906 7.93516 5.48387 8.62956V9.46242L1.95363 10.5215C0.785564 10.8725 0 11.9281 0 13.1483V17.5484H1.09677V13.1483C1.09677 12.4162 1.5677 11.7828 2.26964 11.573L5.80056 10.5133C6.11931 10.9273 6.73694 11.5161 7.67742 11.5161C8.6179 11.5161 9.23553 10.9273 9.55427 10.5133L11.8033 11.1878C11.0898 12.0858 10.614 13.1784 10.4694 14.3739C9.76952 13.6295 8.77762 13.1613 7.67742 13.1613C5.56065 13.1613 3.83871 14.8832 3.83871 17V18.6452C3.83871 19.9462 4.4906 21.0965 5.48387 21.7908V22.6237L1.95363 23.6828C0.785564 24.0338 0 25.0894 0 26.3096V31.2581H6.58065C6.88294 31.2581 7.12903 31.5042 7.12903 31.8065V34H26.871V31.8065C26.871 31.5042 27.1171 31.2581 27.4194 31.2581H34V26.3096C34 25.0894 33.2144 24.0338 32.0464 23.6835L28.5161 22.6244V21.7915C29.5094 21.0971 30.1613 19.9469 30.1613 18.6458V17.0007C30.1613 14.8839 28.4394 13.162 26.3226 13.162C25.2491 13.162 24.2785 13.6062 23.5806 14.3191V13.7995C23.5806 12.7164 22.9918 11.7417 22.074 11.2262L24.4457 10.514C24.7645 10.9273 25.3821 11.5161 26.3226 11.5161C27.2631 11.5161 27.8807 10.9273 28.1994 10.5133L31.731 11.573C32.4323 11.7828 32.9032 12.4162 32.9032 13.1483V17.5484H34ZM7.67742 1.09677C9.18891 1.09677 10.4194 2.32722 10.4194 3.83871H7.90431C7.55609 3.83871 7.21403 3.6975 6.96794 3.45073L6.58065 3.06343L6.19266 3.45141C5.94657 3.6975 5.6052 3.83871 5.25698 3.83871H4.93548C4.93548 2.32722 6.16593 1.09677 7.67742 1.09677ZM4.93548 5.48387V4.93548H5.25698C5.73476 4.93548 6.19129 4.79839 6.58065 4.5427C6.97069 4.79839 7.42653 4.93548 7.90431 4.93548H10.4194V5.48387C10.4194 6.99536 9.18891 8.22581 7.67742 8.22581C6.16593 8.22581 4.93548 6.99536 4.93548 5.48387ZM7.67742 10.4194C7.09476 10.4194 6.71637 9.92992 6.58065 9.72016V9.16149C6.92819 9.265 7.29629 9.32258 7.67742 9.32258C8.05855 9.32258 8.42665 9.265 8.77419 9.16081V9.71948C8.63847 9.92992 8.26008 10.4194 7.67742 10.4194ZM22.7512 20.0442C23.0302 20.7537 23.5128 21.3604 24.129 21.7908V22.6237L20.5995 23.6828C20.4829 23.7171 20.3705 23.7623 20.2602 23.8123L19.7419 23.6931V22.6127C20.328 22.1418 20.79 21.5235 21.0738 20.814C21.7052 20.7585 22.2974 20.4898 22.7512 20.0442ZM17 23.5806C17.582 23.5806 18.1372 23.4641 18.6452 23.2578V23.8548L17 25.0887L15.3548 23.8548V23.2578C15.8628 23.4641 16.418 23.5806 17 23.5806ZM14.6817 24.7206L16.0184 25.7235L14.6433 26.5488L14.2958 24.8097L14.6817 24.7206ZM16.394 29.0645H17.606L18.0323 32.9032H15.967L16.394 29.0645ZM17.7013 27.9677H16.2981L15.9834 27.0231L17 26.4137L18.0159 27.0231L17.7013 27.9677ZM17.9816 25.7242L19.3183 24.7213L19.7042 24.8104L19.3567 26.5495L17.9816 25.7242ZM22.0561 19.2031C21.8663 19.4115 21.625 19.5575 21.3631 19.646C21.3782 19.4965 21.3864 19.3457 21.3864 19.1929V16.5688C21.9766 16.793 22.416 17.3119 22.475 17.9323C22.5209 18.4052 22.3721 18.8556 22.0561 19.2031ZM20.2903 19.1935C20.2903 21.008 18.8145 22.4839 17 22.4839C15.1855 22.4839 13.7097 21.008 13.7097 19.1935V16.4516H15.5715C16.7663 16.4516 17.9295 16.1534 18.9694 15.5838L19.4033 16.4516H20.2903V19.1935ZM12.6362 19.6467C12.3744 19.5575 12.1331 19.4115 11.9432 19.2038C11.6272 18.8563 11.4791 18.4052 11.5237 17.9336C11.5826 17.3133 12.022 16.7937 12.6122 16.5702V19.1935C12.6129 19.3464 12.6211 19.4972 12.6362 19.6467ZM12.9262 20.814C13.2093 21.5228 13.6713 22.1418 14.2581 22.6127V23.6931L13.7398 23.8123C13.6288 23.7623 13.5164 23.7177 13.4005 23.6828L9.87097 22.6244V21.7915C10.4865 21.3604 10.9691 20.7544 11.2488 20.0449C11.7026 20.4898 12.2948 20.7585 12.9262 20.814ZM7.67742 14.2581C9.18891 14.2581 10.4194 15.4885 10.4194 17H10.0979C9.74964 17 9.40758 16.8588 9.16149 16.612L8.77351 16.224L8.38552 16.612C8.13944 16.8581 7.79806 17 7.44915 17H4.93548C4.93548 15.4885 6.16593 14.2581 7.67742 14.2581ZM4.93548 18.6452V18.0968H7.45052C7.92831 18.0968 8.38484 17.9597 8.77419 17.704C9.16423 17.9597 9.62008 18.0968 10.0979 18.0968H10.4194V18.6452C10.4194 20.1567 9.18891 21.3871 7.67742 21.3871C6.16593 21.3871 4.93548 20.1567 4.93548 18.6452ZM7.67742 22.4839C8.05855 22.4839 8.42665 22.4263 8.77419 22.3221V22.8808C8.63847 23.0912 8.26008 23.5806 7.67742 23.5806C7.09476 23.5806 6.71637 23.0912 6.58065 22.8815V22.3228C6.92819 22.4263 7.29629 22.4839 7.67742 22.4839ZM6.58065 30.1613H4.3871V26.3226H3.29032V30.1613H1.09677V26.3096C1.09677 25.5775 1.5677 24.9441 2.26964 24.7343L5.80056 23.6746C6.11931 24.0886 6.73694 24.6774 7.67742 24.6774C8.6179 24.6774 9.23553 24.0886 9.55427 23.6746L11.634 24.299L10.1047 24.6514C8.35262 25.0558 7.12903 26.594 7.12903 28.3921V29.0645H8.22581V28.3914C8.22581 27.1075 9.0998 26.0086 10.3515 25.7194L13.2264 25.0558L13.8728 28.2892L15.0203 27.601L15.3446 28.5751L14.864 32.9032H12.0645V28.5161H10.9677V32.9032H8.22581V31.8065C8.22581 30.8996 7.48754 30.1613 6.58065 30.1613ZM31.7304 24.7336C32.4316 24.9434 32.9032 25.5768 32.9032 26.3089V30.1613H30.7097V26.3226H29.6129V30.1613H27.4194C26.5125 30.1613 25.7742 30.8996 25.7742 31.8065V32.9032H23.0323V28.5161H21.9355V32.9032H19.136L18.6548 28.5751L18.979 27.601L20.1265 28.2892L20.7729 25.0558L23.6485 25.7194C24.8995 26.0086 25.7742 27.1068 25.7742 28.3914V29.0645H26.871V28.3914C26.871 26.594 25.6474 25.0558 23.8953 24.6507L22.366 24.2983L24.4457 23.6739C24.7645 24.0886 25.3821 24.6774 26.3226 24.6774C27.2631 24.6774 27.8807 24.0886 28.1994 23.6746L31.7304 24.7336ZM27.4194 22.8815C27.2836 23.0912 26.9052 23.5806 26.3226 23.5806C25.7385 23.5806 25.3602 23.0892 25.2258 22.8815V22.3221C25.5733 22.4263 25.9415 22.4839 26.3226 22.4839C26.7037 22.4839 27.0718 22.4263 27.4194 22.3221V22.8815ZM26.3226 21.3871C24.8111 21.3871 23.5806 20.1567 23.5806 18.6452V18.0968H23.9021C24.3799 18.0968 24.8365 17.9597 25.2258 17.704C25.6158 17.9597 26.0717 18.0968 26.5495 18.0968H29.0645V18.6452C29.0645 20.1567 27.8341 21.3871 26.3226 21.3871ZM26.3226 14.2581C27.8341 14.2581 29.0645 15.4885 29.0645 17H26.5495C26.2013 17 25.8592 16.8588 25.6131 16.612L25.2251 16.224L24.8371 16.612C24.591 16.8581 24.2497 17 23.9008 17H23.5806C23.5806 15.4885 24.8111 14.2581 26.3226 14.2581ZM22.4839 15.9498C21.9985 15.5824 21.396 15.3548 20.7441 15.3548H20.0806L19.406 14.0058L18.8892 14.3499C17.9028 15.0073 16.7553 15.3548 15.5708 15.3548H13.2545C12.6033 15.3548 12.0001 15.5824 11.5148 15.9498V15.1389C11.5148 12.2345 13.8783 9.87097 16.7827 9.87097C18.19 9.87097 19.513 10.4187 20.5076 11.4133L21.0896 11.9953L21.2123 12.0364C21.9718 12.29 22.4825 12.9975 22.4825 13.7981V15.9498H22.4839ZM26.3226 1.09677C27.8341 1.09677 29.0645 2.32722 29.0645 3.83871H28.743C28.3948 3.83871 28.0527 3.6975 27.8067 3.45073L27.4194 3.06343L27.0314 3.45141C26.7853 3.6975 26.4439 3.8394 26.095 3.8394H23.5806C23.5806 2.32722 24.8111 1.09677 26.3226 1.09677ZM23.5806 5.48387V4.93548H26.0957C26.5735 4.93548 27.03 4.79839 27.4194 4.5427C27.8094 4.79839 28.2652 4.93548 28.743 4.93548H29.0645V5.48387C29.0645 6.99536 27.8341 8.22581 26.3226 8.22581C24.8111 8.22581 23.5806 6.99536 23.5806 5.48387ZM26.3226 10.4194C25.7385 10.4194 25.3602 9.92786 25.2258 9.72016V9.16081C25.5733 9.265 25.9415 9.32258 26.3226 9.32258C26.7037 9.32258 27.0718 9.265 27.4194 9.16081V9.71948C27.2836 9.92992 26.9052 10.4194 26.3226 10.4194Z" fill="black"/>
<path d="M12.6133 0H13.7101V1.09677H12.6133V0Z" fill="black"/>
<path d="M12.6133 2.19336H13.7101V8.22562H12.6133V2.19336Z" fill="black"/>
<path d="M20.29 0H21.3868V1.09677H20.29V0Z" fill="black"/>
<path d="M20.29 2.19336H21.3868V8.22562H20.29V2.19336Z" fill="black"/>
<path d="M14.8066 2.19336H15.9034V6.03207H14.8066V2.19336Z" fill="black"/>
<path d="M14.8066 7.12891H15.9034V8.22568H14.8066V7.12891Z" fill="black"/>
<path d="M18.0967 2.19336H19.1935V6.03207H18.0967V2.19336Z" fill="black"/>
<path d="M18.0967 7.12891H19.1935V8.22568H18.0967V7.12891Z" fill="black"/>
</g>
<defs>
<clipPath id="clip0_395_4502">
<rect width="34" height="34" fill="white"/>
</clipPath>
</defs>
</svg>
