<svg width="52" height="46" viewBox="0 0 52 46" fill="none" xmlns="http://www.w3.org/2000/svg">
<circle cx="39.5" cy="33.5" r="12.5" fill="#F3EC18"/>
<path d="M39.0741 42.9052H6.89549C6.69229 42.9052 6.49741 42.8245 6.35373 42.6808C6.21005 42.5371 6.12933 42.3422 6.12933 42.139C6.12933 41.5295 5.88717 40.9448 5.45612 40.5138C5.02507 40.0827 4.44045 39.8406 3.83085 39.8406C3.62766 39.8406 3.43278 39.7599 3.2891 39.6162C3.14542 39.4725 3.0647 39.2776 3.0647 39.0744V26.8159C3.0647 26.6127 3.14542 26.4178 3.2891 26.2741C3.43278 26.1305 3.62766 26.0497 3.83085 26.0497C4.44045 26.0497 5.02507 25.8076 5.45612 25.3765C5.88717 24.9455 6.12933 24.3609 6.12933 23.7513C6.12933 23.5481 6.21005 23.3532 6.35373 23.2095C6.49741 23.0658 6.69229 22.9851 6.89549 22.9851H39.0741C39.2773 22.9851 39.4722 23.0658 39.6159 23.2095C39.7595 23.3532 39.8403 23.5481 39.8403 23.7513C39.8403 24.3609 40.0824 24.9455 40.5135 25.3765C40.9445 25.8076 41.5291 26.0497 42.1387 26.0497C42.3419 26.0497 42.5368 26.1305 42.6805 26.2741C42.8242 26.4178 42.9049 26.6127 42.9049 26.8159V39.0744C42.9049 39.2776 42.8242 39.4725 42.6805 39.6162C42.5368 39.7599 42.3419 39.8406 42.1387 39.8406C41.5291 39.8406 40.9445 40.0827 40.5135 40.5138C40.0824 40.9448 39.8403 41.5295 39.8403 42.139C39.8403 42.3422 39.7595 42.5371 39.6159 42.6808C39.4722 42.8245 39.2773 42.9052 39.0741 42.9052ZM7.58503 41.3729H38.3846C38.5359 40.6372 38.8996 39.9621 39.4307 39.431C39.9618 38.8999 40.6369 38.5362 41.3726 38.3849V27.5054C40.6369 27.3541 39.9618 26.9904 39.4307 26.4593C38.8996 25.9282 38.5359 25.2531 38.3846 24.5174H7.58503C7.43368 25.2531 7.06997 25.9282 6.53888 26.4593C6.0078 26.9904 5.33267 27.3541 4.59701 27.5054V38.3849C5.33267 38.5362 6.0078 38.8999 6.53888 39.431C7.06997 39.9621 7.43368 40.6372 7.58503 41.3729Z" fill="black"/>
<path d="M22.9847 40.6068C21.4694 40.6068 19.9881 40.1575 18.7282 39.3156C17.4682 38.4738 16.4862 37.2772 15.9063 35.8772C15.3264 34.4773 15.1747 32.9368 15.4703 31.4506C15.766 29.9644 16.4957 28.5992 17.5671 27.5277C18.6386 26.4562 20.0038 25.7265 21.49 25.4309C22.9762 25.1353 24.5167 25.287 25.9167 25.8669C27.3166 26.4468 28.5132 27.4288 29.3551 28.6887C30.1969 29.9487 30.6463 31.43 30.6463 32.9453C30.644 34.9766 29.8361 36.924 28.3998 38.3604C26.9634 39.7967 25.016 40.6046 22.9847 40.6068ZM22.9847 26.816C21.7724 26.816 20.5874 27.1755 19.5795 27.849C18.5715 28.5225 17.7859 29.4797 17.322 30.5997C16.8581 31.7197 16.7367 32.9521 16.9732 34.141C17.2097 35.33 17.7935 36.4221 18.6507 37.2793C19.5079 38.1365 20.6 38.7203 21.7889 38.9568C22.9779 39.1933 24.2103 39.0719 25.3303 38.608C26.4502 38.1441 27.4075 37.3585 28.081 36.3505C28.7545 35.3426 29.114 34.1575 29.114 32.9453C29.1121 31.3203 28.4658 29.7623 27.3167 28.6132C26.1677 27.4642 24.6097 26.8178 22.9847 26.816Z" fill="black"/>
<path d="M22.9848 32.179C22.8332 32.179 22.6851 32.134 22.5591 32.0499C22.4331 31.9657 22.3349 31.846 22.2769 31.706C22.2189 31.566 22.2038 31.412 22.2333 31.2633C22.2629 31.1147 22.3358 30.9782 22.443 30.8711C22.5501 30.7639 22.6867 30.6909 22.8353 30.6614C22.9839 30.6318 23.138 30.647 23.2779 30.705C23.4179 30.763 23.5376 30.8612 23.6218 30.9872C23.706 31.1132 23.7509 31.2613 23.7509 31.4128C23.7509 31.616 23.8316 31.8109 23.9753 31.9546C24.119 32.0983 24.3139 32.179 24.5171 32.179C24.7203 32.179 24.9151 32.0983 25.0588 31.9546C25.2025 31.8109 25.2832 31.616 25.2832 31.4128C25.2813 30.9391 25.133 30.4776 24.8587 30.0914C24.5844 29.7052 24.1975 29.4132 23.7509 29.2553V28.3482C23.7509 28.145 23.6702 27.9501 23.5265 27.8064C23.3828 27.6628 23.1879 27.582 22.9848 27.582C22.7816 27.582 22.5867 27.6628 22.443 27.8064C22.2993 27.9501 22.2186 28.145 22.2186 28.3482V29.2553C21.7078 29.4352 21.2772 29.7901 21.003 30.2571C20.7288 30.7241 20.6287 31.2731 20.7205 31.8068C20.8122 32.3405 21.0899 32.8245 21.5043 33.1731C21.9188 33.5217 22.4432 33.7123 22.9848 33.7113C23.1363 33.7113 23.2844 33.7562 23.4104 33.8404C23.5364 33.9246 23.6346 34.0443 23.6926 34.1843C23.7506 34.3243 23.7658 34.4783 23.7362 34.6269C23.7066 34.7755 23.6337 34.9121 23.5265 35.0192C23.4194 35.1264 23.2828 35.1993 23.1342 35.2289C22.9856 35.2584 22.8316 35.2433 22.6916 35.1853C22.5516 35.1273 22.4319 35.0291 22.3477 34.9031C22.2635 34.7771 22.2186 34.629 22.2186 34.4774C22.2186 34.2743 22.1379 34.0794 21.9942 33.9357C21.8505 33.792 21.6556 33.7113 21.4524 33.7113C21.2492 33.7113 21.0544 33.792 20.9107 33.9357C20.767 34.0794 20.6863 34.2743 20.6863 34.4774C20.6882 34.9511 20.8365 35.4126 21.1108 35.7988C21.3851 36.185 21.772 36.4771 22.2186 36.635V37.5421C22.2186 37.7453 22.2993 37.9402 22.443 38.0838C22.5867 38.2275 22.7816 38.3082 22.9848 38.3082C23.1879 38.3082 23.3828 38.2275 23.5265 38.0838C23.6702 37.9402 23.7509 37.7453 23.7509 37.5421V36.635C24.2617 36.455 24.6923 36.1002 24.9665 35.6332C25.2407 35.1662 25.3408 34.6172 25.249 34.0835C25.1573 33.5498 24.8796 33.0658 24.4652 32.7172C24.0507 32.3686 23.5263 32.178 22.9848 32.179Z" fill="black"/>
<path d="M15.3231 10.7266C15.1716 10.7266 15.0235 10.6817 14.8975 10.5975C14.7715 10.5133 14.6733 10.3936 14.6153 10.2536C14.5573 10.1136 14.5421 9.95958 14.5717 9.81096C14.6013 9.66234 14.6742 9.52582 14.7814 9.41867C14.8885 9.31152 15.025 9.23855 15.1737 9.20899C15.3223 9.17943 15.4763 9.1946 15.6163 9.25259C15.7563 9.31058 15.876 9.40878 15.9602 9.53477C16.0444 9.66077 16.0893 9.8089 16.0893 9.96043C16.0893 10.1636 16.17 10.3585 16.3137 10.5022C16.4574 10.6459 16.6522 10.7266 16.8554 10.7266C17.0586 10.7266 17.2535 10.6459 17.3972 10.5022C17.5409 10.3585 17.6216 10.1636 17.6216 9.96043C17.6196 9.48674 17.4714 9.02523 17.1971 8.63904C16.9228 8.25284 16.5359 7.96082 16.0893 7.80293V6.8958C16.0893 6.6926 16.0086 6.49772 15.8649 6.35404C15.7212 6.21036 15.5263 6.12964 15.3231 6.12964C15.1199 6.12964 14.9251 6.21036 14.7814 6.35404C14.6377 6.49772 14.557 6.6926 14.557 6.8958V7.80293C14.0462 7.98284 13.6156 8.33771 13.3414 8.8047C13.0672 9.27169 12.9671 9.82066 13.0588 10.3544C13.1506 10.8881 13.4283 11.3721 13.8427 11.7207C14.2572 12.0693 14.7816 12.2599 15.3231 12.2589C15.4747 12.2589 15.6228 12.3038 15.7488 12.388C15.8748 12.4722 15.973 12.5919 16.031 12.7319C16.089 12.8719 16.1041 13.0259 16.0746 13.1745C16.045 13.3231 15.972 13.4597 15.8649 13.5668C15.7577 13.674 15.6212 13.7469 15.4726 13.7765C15.324 13.8061 15.1699 13.7909 15.0299 13.7329C14.8899 13.6749 14.7703 13.5767 14.6861 13.4507C14.6019 13.3247 14.557 13.1766 14.557 13.0251C14.557 12.8219 14.4763 12.627 14.3326 12.4833C14.1889 12.3396 13.994 12.2589 13.7908 12.2589C13.5876 12.2589 13.3927 12.3396 13.2491 12.4833C13.1054 12.627 13.0247 12.8219 13.0247 13.0251C13.0266 13.4987 13.1749 13.9603 13.4492 14.3464C13.7235 14.7326 14.1104 15.0247 14.557 15.1826V16.0897C14.557 16.2929 14.6377 16.4878 14.7814 16.6314C14.9251 16.7751 15.1199 16.8558 15.3231 16.8558C15.5263 16.8558 15.7212 16.7751 15.8649 16.6314C16.0086 16.4878 16.0893 16.2929 16.0893 16.0897V15.1826C16.6001 15.0026 17.0307 14.6478 17.3049 14.1808C17.5791 13.7138 17.6792 13.1648 17.5874 12.6311C17.4957 12.0974 17.218 11.6134 16.8035 11.2648C16.3891 10.9162 15.8647 10.7256 15.3231 10.7266Z" fill="black"/>
<path d="M37.5417 33.7113H34.4771C34.2739 33.7113 34.079 33.6306 33.9353 33.4869C33.7917 33.3432 33.7109 33.1483 33.7109 32.9451C33.7109 32.7419 33.7917 32.547 33.9353 32.4034C34.079 32.2597 34.2739 32.179 34.4771 32.179H37.5417C37.7449 32.179 37.9398 32.2597 38.0835 32.4034C38.2272 32.547 38.3079 32.7419 38.3079 32.9451C38.3079 33.1483 38.2272 33.3432 38.0835 33.4869C37.9398 33.6306 37.7449 33.7113 37.5417 33.7113Z" fill="black"/>
<path d="M11.4924 33.7113H8.42778C8.22458 33.7113 8.02971 33.6306 7.88602 33.4869C7.74234 33.3432 7.66162 33.1483 7.66162 32.9451C7.66162 32.7419 7.74234 32.547 7.88602 32.4034C8.02971 32.2597 8.22458 32.179 8.42778 32.179H11.4924C11.6956 32.179 11.8905 32.2597 12.0342 32.4034C12.1778 32.547 12.2586 32.7419 12.2586 32.9451C12.2586 33.1483 12.1778 33.3432 12.0342 33.4869C11.8905 33.6306 11.6956 33.7113 11.4924 33.7113Z" fill="black"/>
<path d="M45.2033 19.9205H37.5417V0.766528C37.5418 0.627877 37.5042 0.491807 37.433 0.372823C37.3619 0.253838 37.2597 0.1564 37.1375 0.0908958C37.0153 0.0253913 36.8776 -0.00572435 36.7391 0.000866179C36.6006 0.00745671 36.4665 0.0515063 36.3511 0.128319L34.4725 1.37945L32.5939 0.128319C32.4681 0.0446433 32.3205 3.41002e-07 32.1694 3.41002e-07C32.0184 3.41002e-07 31.8707 0.0446433 31.745 0.128319L29.8702 1.37945L27.9969 0.130617C27.8711 0.0467793 27.7233 0.00204364 27.5721 0.00204364C27.4209 0.00204364 27.2731 0.0467793 27.1473 0.130617L25.2732 1.37945L23.403 0.130617C23.2771 0.0466167 23.1292 0.00178828 22.9778 0.00178828C22.8265 0.00178828 22.6785 0.0466167 22.5526 0.130617L20.6794 1.37945L18.8053 0.130617C18.6795 0.0467793 18.5317 0.00204364 18.3805 0.00204364C18.2293 0.00204364 18.0815 0.0467793 17.9557 0.130617L16.0832 1.37945L14.2122 0.129085C14.0863 0.0450843 13.9384 0.000255982 13.787 0.000255982C13.6357 0.000255982 13.4877 0.0450843 13.3618 0.129085L11.4924 1.37945L9.62141 0.130617C9.50611 0.0530874 9.37189 0.00837086 9.23313 0.00125434C9.09437 -0.00586217 8.95629 0.0248892 8.83366 0.0902168C8.71103 0.155544 8.60848 0.252989 8.53698 0.37212C8.46547 0.491252 8.42771 0.627585 8.42773 0.766528V19.9205H0.766158C0.56296 19.9205 0.368085 20.0012 0.224402 20.1449C0.0807199 20.2886 0 20.4834 0 20.6866V45.2037C0 45.4069 0.0807199 45.6017 0.224402 45.7454C0.368085 45.8891 0.56296 45.9698 0.766158 45.9698H45.2033C45.4065 45.9698 45.6014 45.8891 45.745 45.7454C45.8887 45.6017 45.9695 45.4069 45.9695 45.2037V20.6866C45.9695 20.4834 45.8887 20.2886 45.745 20.1449C45.6014 20.0012 45.4065 19.9205 45.2033 19.9205ZM9.96005 2.19924L11.0641 2.93629C11.19 3.02029 11.3379 3.06512 11.4893 3.06512C11.6407 3.06512 11.7886 3.02029 11.9145 2.93629L13.7908 1.68592L15.6618 2.93475C15.7877 3.01875 15.9357 3.06358 16.087 3.06358C16.2384 3.06358 16.3863 3.01875 16.5122 2.93475L18.3809 1.68592L20.2541 2.93475C20.38 3.01859 20.5278 3.06333 20.679 3.06333C20.8302 3.06333 20.978 3.01859 21.1038 2.93475L22.9771 1.68592L24.8488 2.93475C24.9746 3.01859 25.1224 3.06333 25.2736 3.06333C25.4248 3.06333 25.5726 3.01859 25.6985 2.93475L27.5717 1.68592L29.4457 2.93475C29.5716 3.01859 29.7194 3.06333 29.8706 3.06333C30.0218 3.06333 30.1696 3.01859 30.2954 2.93475L32.1694 1.68592L34.048 2.93705C34.1738 3.02073 34.3215 3.06537 34.4725 3.06537C34.6235 3.06537 34.7712 3.02073 34.8969 2.93705L36.0094 2.19694V19.9205H9.96005V2.19924ZM44.4371 44.4375H1.53232V21.4528H44.4371V44.4375Z" fill="black"/>
<path d="M33.7109 9.19418H19.92C19.7168 9.19418 19.522 9.11346 19.3783 8.96978C19.2346 8.8261 19.1539 8.63122 19.1539 8.42802C19.1539 8.22483 19.2346 8.02995 19.3783 7.88627C19.522 7.74259 19.7168 7.66187 19.92 7.66187H33.7109C33.9141 7.66187 34.1089 7.74259 34.2526 7.88627C34.3963 8.02995 34.477 8.22483 34.477 8.42802C34.477 8.63122 34.3963 8.8261 34.2526 8.96978C34.1089 9.11346 33.9141 9.19418 33.7109 9.19418Z" fill="black"/>
<path d="M33.7109 12.2589H19.92C19.7168 12.2589 19.522 12.1782 19.3783 12.0345C19.2346 11.8908 19.1539 11.6959 19.1539 11.4927C19.1539 11.2895 19.2346 11.0946 19.3783 10.951C19.522 10.8073 19.7168 10.7266 19.92 10.7266H33.7109C33.9141 10.7266 34.1089 10.8073 34.2526 10.951C34.3963 11.0946 34.477 11.2895 34.477 11.4927C34.477 11.6959 34.3963 11.8908 34.2526 12.0345C34.1089 12.1782 33.9141 12.2589 33.7109 12.2589Z" fill="black"/>
<path d="M33.7109 15.3236H19.92C19.7168 15.3236 19.522 15.2429 19.3783 15.0992C19.2346 14.9555 19.1539 14.7606 19.1539 14.5574C19.1539 14.3542 19.2346 14.1593 19.3783 14.0157C19.522 13.872 19.7168 13.7913 19.92 13.7913H33.7109C33.9141 13.7913 34.1089 13.872 34.2526 14.0157C34.3963 14.1593 34.477 14.3542 34.477 14.5574C34.477 14.7606 34.3963 14.9555 34.2526 15.0992C34.1089 15.2429 33.9141 15.3236 33.7109 15.3236Z" fill="black"/>
<path d="M33.7109 18.3883H27.5816C27.3785 18.3883 27.1836 18.3076 27.0399 18.1639C26.8962 18.0202 26.8155 17.8253 26.8155 17.6221C26.8155 17.4189 26.8962 17.224 27.0399 17.0804C27.1836 16.9367 27.3785 16.856 27.5816 16.856H33.7109C33.9141 16.856 34.109 16.9367 34.2527 17.0804C34.3963 17.224 34.4771 17.4189 34.4771 17.6221C34.4771 17.8253 34.3963 18.0202 34.2527 18.1639C34.109 18.3076 33.9141 18.3883 33.7109 18.3883Z" fill="black"/>
</svg>
