<svg width="53" height="46" viewBox="0 0 53 46" fill="none" xmlns="http://www.w3.org/2000/svg">
<circle cx="40.5" cy="33.5" r="12.5" fill="#F3EC18"/>
<path d="M31.057 33.2859C34.5688 31.4763 37.3706 28.5391 39.0126 24.9459C40.6547 21.3527 41.0417 17.312 40.1115 13.4725C39.1813 9.63294 36.9878 6.21735 33.8834 3.7741C30.7789 1.33086 26.9434 0.00168766 22.9928 1.60604e-06C19.0422 -0.00168445 15.2056 1.32421 12.099 3.76481C8.99247 6.2054 6.79613 9.61911 5.86265 13.4579C4.92917 17.2966 5.31271 21.3377 6.95168 24.9323C8.59066 28.5268 11.39 31.4664 14.9002 33.279C15.2642 33.4725 15.5678 33.7625 15.7776 34.1174C15.9874 34.4722 16.0952 34.878 16.0893 35.2902V36.7719H15.3232C15.12 36.7719 14.9251 36.8526 14.7814 36.9963C14.6377 37.14 14.557 37.3349 14.557 37.5381V42.135C14.557 42.3382 14.6377 42.5331 14.7814 42.6768C14.9251 42.8205 15.12 42.9012 15.3232 42.9012H17.6216V43.6673C17.6216 44.2769 17.8638 44.8616 18.2948 45.2926C18.7259 45.7236 19.3105 45.9658 19.9201 45.9658H26.0494C26.659 45.9658 27.2436 45.7236 27.6746 45.2926C28.1057 44.8616 28.3478 44.2769 28.3478 43.6673V42.9012H30.6463C30.8495 42.9012 31.0444 42.8205 31.1881 42.6768C31.3317 42.5331 31.4125 42.3382 31.4125 42.135V37.5381C31.4125 37.3349 31.3317 37.14 31.1881 36.9963C31.0444 36.8526 30.8495 36.7719 30.6463 36.7719H29.8801V35.2917C29.8758 34.882 29.983 34.4789 30.1904 34.1256C30.3977 33.7722 30.6972 33.482 31.057 33.2859ZM26.8155 43.6673C26.8155 43.8705 26.7348 44.0654 26.5911 44.2091C26.4474 44.3528 26.2526 44.4335 26.0494 44.4335H19.9201C19.7169 44.4335 19.522 44.3528 19.3783 44.2091C19.2347 44.0654 19.1539 43.8705 19.1539 43.6673V42.9012H26.8155V43.6673ZM29.8801 41.3689H16.0893V38.3042H29.8801V41.3689ZM15.1592 22.4348C14.6384 21.6058 14.2598 20.6956 14.0391 19.7418C13.9997 19.5734 13.9045 19.4234 13.769 19.316C13.6335 19.2086 13.4657 19.1502 13.2928 19.1503H10.7262V16.0857H13.2928C13.4657 16.0857 13.6335 16.0273 13.769 15.9199C13.9045 15.8126 13.9997 15.6625 14.0391 15.4942C14.2598 14.5404 14.6384 13.6302 15.1592 12.8011C15.2518 12.6542 15.2916 12.4801 15.2723 12.3075C15.2529 12.1349 15.1755 11.9739 15.0527 11.8511L13.2346 10.033L15.3998 7.86786L17.2179 9.68595C17.3407 9.80877 17.5016 9.8862 17.6742 9.90555C17.8468 9.9249 18.0209 9.88502 18.1679 9.79245C18.9969 9.27168 19.9071 8.89309 20.8609 8.67232C21.0293 8.63291 21.1793 8.53773 21.2867 8.40225C21.3941 8.26677 21.4525 8.09896 21.4524 7.92609V5.35946H24.517V7.92609C24.517 8.09896 24.5754 8.26677 24.6828 8.40225C24.7902 8.53773 24.9402 8.63291 25.1085 8.67232C26.0623 8.89309 26.9725 9.27168 27.8016 9.79245C27.9485 9.88502 28.1226 9.9249 28.2952 9.90555C28.4678 9.8862 28.6288 9.80877 28.7516 9.68595L30.5697 7.86786L32.7349 10.033L30.9168 11.8511C30.7944 11.9733 30.717 12.1333 30.6971 12.3051C30.6772 12.4769 30.716 12.6504 30.8072 12.7973C31.3262 13.6261 31.703 14.5358 31.922 15.4888C31.9604 15.6583 32.0552 15.8096 32.1909 15.9181C32.3267 16.0265 32.4952 16.0856 32.669 16.0857H35.2433V19.1503H32.669C32.4952 19.1503 32.3267 19.2094 32.1909 19.3179C32.0552 19.4263 31.9604 19.5777 31.922 19.7471C31.703 20.7002 31.3262 21.6099 30.8072 22.4386C30.716 22.5856 30.6772 22.759 30.6971 22.9308C30.717 23.1026 30.7944 23.2626 30.9168 23.3848L32.7349 25.2029L30.5697 27.3681L28.7516 25.55C28.6286 25.4271 28.4675 25.3497 28.2947 25.3305C28.1219 25.3113 27.9478 25.3514 27.8008 25.4443C27.4845 25.6431 27.1553 25.8208 26.8155 25.976V23.3282C28.0455 22.5063 28.9787 21.3107 29.477 19.9178C29.9754 18.525 30.0127 17.0088 29.5833 15.5932C29.1538 14.1776 28.2805 12.9376 27.0923 12.0563C25.9042 11.1751 24.464 10.6993 22.9847 10.6993C21.5054 10.6993 20.0653 11.1751 18.8771 12.0563C17.6889 12.9376 16.8156 14.1776 16.3862 15.5932C15.9568 17.0088 15.994 18.525 16.4924 19.9178C16.9908 21.3107 17.9239 22.5063 19.1539 23.3282V25.976C18.8141 25.8208 18.485 25.6431 18.1687 25.4443C18.0217 25.3514 17.8475 25.3113 17.6747 25.3305C17.5019 25.3497 17.3408 25.4271 17.2179 25.55L15.3998 27.3681L13.2346 25.2029L15.0527 23.3848C15.1755 23.262 15.2529 23.1011 15.2723 22.9285C15.2916 22.7559 15.2518 22.5818 15.1592 22.4348ZM22.9847 20.4911L20.9598 18.9725L22.9847 15.9324L25.0097 18.9702L22.9847 20.4911ZM23.7509 21.8318L25.2832 20.6826V36.7719H23.7509V21.8318ZM23.6222 14.1281C23.548 14.029 23.4518 13.9486 23.3412 13.8932C23.2305 13.8378 23.1085 13.8089 22.9847 13.8089C22.861 13.8089 22.7389 13.8378 22.6283 13.8932C22.5176 13.9486 22.4214 14.029 22.3473 14.1281L19.2827 18.7251C19.1989 18.8511 19.1542 18.999 19.1539 19.1503V21.3637C18.4149 20.6094 17.9149 19.6537 17.7168 18.6163C17.5187 17.579 17.6313 16.5063 18.0404 15.5327C18.4495 14.5591 19.137 13.728 20.0165 13.1435C20.8961 12.559 21.9287 12.2472 22.9847 12.2472C24.0408 12.2472 25.0733 12.559 25.9529 13.1435C26.8325 13.728 27.5199 14.5591 27.9291 15.5327C28.3382 16.5063 28.4507 17.579 28.2526 18.6163C28.0545 19.6537 27.5546 20.6094 26.8155 21.3637V19.1503C26.8153 18.999 26.7705 18.8511 26.6868 18.7251L23.6222 14.1281ZM20.6863 20.6826L22.2186 21.8318V36.7719H20.6863V20.6826ZM26.8155 36.7719V27.6263C27.2521 27.4643 27.677 27.2726 28.0873 27.0524L30.028 28.9931C30.1717 29.1368 30.3665 29.2174 30.5697 29.2174C30.7729 29.2174 30.9677 29.1368 31.1114 28.9931L34.3599 25.7446C34.5035 25.6009 34.5842 25.4061 34.5842 25.2029C34.5842 24.9998 34.5035 24.8049 34.3599 24.6613L32.4177 22.7183C32.7709 22.0718 33.0539 21.3893 33.262 20.6826H36.0094C36.2126 20.6826 36.4075 20.6019 36.5512 20.4582C36.6948 20.3145 36.7756 20.1196 36.7756 19.9165V15.3195C36.7756 15.1163 36.6948 14.9214 36.5512 14.7778C36.4075 14.6341 36.2126 14.5533 36.0094 14.5533H33.262C33.0541 13.8468 32.7716 13.1644 32.4192 12.5177L34.3614 10.5747C34.505 10.431 34.5857 10.2362 34.5857 10.033C34.5857 9.82986 34.505 9.63502 34.3614 9.49135L31.1129 6.24284C30.9692 6.09921 30.7744 6.01852 30.5712 6.01852C30.3681 6.01852 30.1732 6.09921 30.0295 6.24284L28.0873 8.18352C27.4403 7.82904 26.7571 7.5452 26.0494 7.33691V4.5933C26.0494 4.3901 25.9686 4.19523 25.825 4.05155C25.6813 3.90786 25.4864 3.82714 25.2832 3.82714H20.6863C20.4831 3.82714 20.2882 3.90786 20.1445 4.05155C20.0008 4.19523 19.9201 4.3901 19.9201 4.5933V7.33691C19.2124 7.5452 18.5291 7.82904 17.8821 8.18352L15.9414 6.24284C15.7978 6.09921 15.6029 6.01852 15.3998 6.01852C15.1966 6.01852 15.0018 6.09921 14.8581 6.24284L11.6096 9.49135C11.466 9.63502 11.3853 9.82986 11.3853 10.033C11.3853 10.2362 11.466 10.431 11.6096 10.5747L13.5503 12.5154C13.1958 13.1624 12.912 13.8456 12.7037 14.5533H9.96005C9.75685 14.5533 9.56198 14.6341 9.4183 14.7778C9.27461 14.9214 9.19389 15.1163 9.19389 15.3195V19.9165C9.19389 20.1196 9.27461 20.3145 9.4183 20.4582C9.56198 20.6019 9.75685 20.6826 9.96005 20.6826H12.7037C12.912 21.3903 13.1958 22.0736 13.5503 22.7206L11.6096 24.6613C11.466 24.8049 11.3853 24.9998 11.3853 25.2029C11.3853 25.4061 11.466 25.6009 11.6096 25.7446L14.8581 28.9931C15.0018 29.1368 15.1966 29.2174 15.3998 29.2174C15.6029 29.2174 15.7978 29.1368 15.9414 28.9931L17.8821 27.0524C18.2924 27.2726 18.7174 27.4643 19.1539 27.6263V36.7719H17.6216V35.2902C17.6282 34.597 17.4434 33.9155 17.0874 33.3207C16.7315 32.7259 16.2183 32.2409 15.6043 31.9191C12.399 30.2645 9.8426 27.5808 8.34567 24.2989C6.84874 21.017 6.4981 17.3272 7.35007 13.8221C8.20203 10.3169 10.2072 7.19975 13.0435 4.97106C15.8798 2.74238 19.3828 1.53148 22.99 1.53279C26.5972 1.5341 30.0993 2.74755 32.9341 4.97829C35.7688 7.20904 37.7716 10.3277 38.6211 13.8334C39.4705 17.3392 39.1172 21.0287 37.6178 24.3095C36.1185 27.5904 33.5602 30.2722 30.3536 31.9244C29.7416 32.2465 29.2304 32.7313 28.8764 33.3255C28.5225 33.9197 28.3396 34.6001 28.3478 35.2917V36.7719H26.8155Z" fill="black"/>
<path d="M45.2033 18.3841H42.9048C42.7016 18.3841 42.5068 18.3034 42.3631 18.1597C42.2194 18.016 42.1387 17.8212 42.1387 17.618C42.1387 17.4148 42.2194 17.2199 42.3631 17.0762C42.5068 16.9325 42.7016 16.8518 42.9048 16.8518H45.2033C45.4065 16.8518 45.6014 16.9325 45.7451 17.0762C45.8887 17.2199 45.9695 17.4148 45.9695 17.618C45.9695 17.8212 45.8887 18.016 45.7451 18.1597C45.6014 18.3034 45.4065 18.3841 45.2033 18.3841Z" fill="black"/>
<path d="M42.226 13.2288C42.0401 13.2289 41.8604 13.1613 41.7206 13.0388C41.5808 12.9162 41.4903 12.747 41.466 12.5627C41.4418 12.3784 41.4853 12.1915 41.5886 12.0369C41.6919 11.8823 41.8479 11.7706 42.0275 11.7225L44.2494 11.1272C44.4457 11.0746 44.6548 11.1021 44.8309 11.2037C45.0069 11.3053 45.1353 11.4726 45.1879 11.6689C45.2406 11.8652 45.2131 12.0743 45.1115 12.2503C45.0099 12.4264 44.8426 12.5548 44.6463 12.6074L42.4244 13.202C42.3598 13.2198 42.293 13.2289 42.226 13.2288Z" fill="black"/>
<path d="M40.2371 8.42413C40.0684 8.42412 39.9045 8.36847 39.7707 8.2658C39.6369 8.16312 39.5407 8.01917 39.4971 7.85627C39.4534 7.69337 39.4647 7.52061 39.5293 7.3648C39.5938 7.20898 39.7079 7.07881 39.854 6.99448L41.846 5.84524C42.0219 5.74525 42.2302 5.71888 42.4254 5.77188C42.6207 5.82489 42.787 5.95298 42.8882 6.12819C42.9893 6.3034 43.0171 6.51151 42.9654 6.70711C42.9137 6.9027 42.7867 7.06991 42.6122 7.17223L40.6202 8.32146C40.5037 8.38872 40.3716 8.42412 40.2371 8.42413Z" fill="black"/>
<path d="M37.0706 4.29832C36.9191 4.29829 36.771 4.25334 36.645 4.16915C36.519 4.08496 36.4209 3.96531 36.3629 3.82534C36.3049 3.68536 36.2897 3.53134 36.3193 3.38274C36.3488 3.23414 36.4218 3.09764 36.5289 2.99049L38.1547 1.36547C38.2246 1.28947 38.3092 1.22841 38.4034 1.18594C38.4975 1.14346 38.5993 1.12047 38.7025 1.11833C38.8058 1.11619 38.9084 1.13495 39.0043 1.17349C39.1001 1.21202 39.1871 1.26953 39.2602 1.34257C39.3332 1.4156 39.3907 1.50265 39.4292 1.59847C39.4678 1.6943 39.4865 1.79693 39.4844 1.90019C39.4823 2.00345 39.4593 2.10522 39.4168 2.19937C39.3743 2.29352 39.3133 2.3781 39.2373 2.44805L37.6122 4.07384C37.4686 4.21753 37.2737 4.29828 37.0706 4.29832Z" fill="black"/>
<path d="M44.4463 24.135C44.3793 24.135 44.3126 24.1262 44.2478 24.109L42.026 23.5137C41.9265 23.4898 41.8327 23.4463 41.7503 23.3856C41.6678 23.3249 41.5984 23.2484 41.5461 23.1604C41.4937 23.0725 41.4595 22.9749 41.4455 22.8735C41.4315 22.7721 41.4379 22.669 41.4645 22.5701C41.491 22.4712 41.537 22.3787 41.5999 22.2979C41.6628 22.2172 41.7412 22.1498 41.8306 22.0999C41.9199 22.0499 42.0183 22.0184 42.1201 22.0071C42.2218 21.9958 42.3248 22.0051 42.4229 22.0342L44.6447 22.6288C44.8243 22.6768 44.9803 22.7886 45.0836 22.9432C45.1869 23.0977 45.2305 23.2846 45.2062 23.4689C45.1819 23.6533 45.0915 23.8225 44.9516 23.945C44.8118 24.0676 44.6322 24.1351 44.4463 24.135Z" fill="black"/>
<path d="M42.2261 29.4934C42.0915 29.4937 41.9593 29.4583 41.843 29.3908L39.851 28.2415C39.7631 28.1916 39.6861 28.1248 39.6241 28.0449C39.5622 27.965 39.5167 27.8737 39.4903 27.7762C39.4638 27.6787 39.4569 27.5769 39.4699 27.4767C39.4829 27.3765 39.5156 27.2799 39.5661 27.1924C39.6167 27.1049 39.684 27.0282 39.7643 26.9669C39.8445 26.9055 39.9361 26.8606 40.0338 26.8348C40.1315 26.8089 40.2333 26.8027 40.3335 26.8164C40.4336 26.8301 40.53 26.8634 40.6171 26.9145L42.6091 28.0638C42.7552 28.1481 42.8693 28.2783 42.9339 28.4341C42.9984 28.5899 43.0097 28.7627 42.9661 28.9256C42.9224 29.0885 42.8263 29.2324 42.6925 29.3351C42.5587 29.4378 42.3947 29.4934 42.2261 29.4934Z" fill="black"/>
<path d="M38.6956 34.0949C38.4924 34.0949 38.2976 34.0141 38.1539 33.8705L36.5289 32.2454C36.3894 32.1009 36.3121 31.9074 36.3139 31.7065C36.3156 31.5056 36.3962 31.3135 36.5382 31.1714C36.6803 31.0294 36.8725 30.9488 37.0733 30.9471C37.2742 30.9453 37.4678 31.0225 37.6123 31.1621L39.2373 32.7879C39.3444 32.895 39.4173 33.0315 39.4469 33.1801C39.4764 33.3287 39.4613 33.4827 39.4033 33.6227C39.3453 33.7627 39.2471 33.8823 39.1212 33.9665C38.9952 34.0507 38.8471 34.0957 38.6956 34.0957V34.0949Z" fill="black"/>
<path d="M3.06463 18.3841H0.766158C0.56296 18.3841 0.368085 18.3034 0.224402 18.1597C0.0807199 18.016 0 17.8212 0 17.618C0 17.4148 0.0807199 17.2199 0.224402 17.0762C0.368085 16.9325 0.56296 16.8518 0.766158 16.8518H3.06463C3.26783 16.8518 3.4627 16.9325 3.60638 17.0762C3.75007 17.2199 3.83079 17.4148 3.83079 17.618C3.83079 17.8212 3.75007 18.016 3.60638 18.1597C3.4627 18.3034 3.26783 18.3841 3.06463 18.3841Z" fill="black"/>
<path d="M3.74342 13.2288C3.67637 13.2288 3.60962 13.2198 3.54498 13.202L1.32312 12.6074C1.22593 12.5814 1.13482 12.5364 1.055 12.4752C0.97518 12.4139 0.908207 12.3375 0.857908 12.2503C0.807609 12.1632 0.774969 12.067 0.76185 11.9672C0.748731 11.8675 0.755391 11.7661 0.78145 11.6689C0.807509 11.5717 0.852456 11.4806 0.913725 11.4008C0.974995 11.3209 1.05139 11.254 1.13854 11.2037C1.31455 11.1021 1.5237 11.0746 1.71999 11.1272L3.94185 11.7225C4.12145 11.7706 4.27745 11.8823 4.38076 12.0369C4.48407 12.1915 4.52765 12.3784 4.50336 12.5627C4.47908 12.747 4.38859 12.9162 4.24877 13.0388C4.10895 13.1613 3.92934 13.2289 3.74342 13.2288Z" fill="black"/>
<path d="M5.73241 8.42413C5.59791 8.42412 5.4658 8.38872 5.34933 8.32146L3.35732 7.17223C3.18278 7.06991 3.0558 6.9027 3.00409 6.70711C2.95238 6.51151 2.98013 6.3034 3.08129 6.12819C3.18245 5.95298 3.34881 5.82489 3.54406 5.77188C3.73931 5.71888 3.9476 5.74525 4.12347 5.84524L6.11548 6.99448C6.26154 7.07881 6.37568 7.20898 6.44022 7.3648C6.50475 7.52061 6.51607 7.69337 6.47242 7.85627C6.42877 8.01917 6.33259 8.16312 6.19879 8.2658C6.06499 8.36847 5.90106 8.42412 5.73241 8.42413Z" fill="black"/>
<path d="M8.89886 4.29832C8.69568 4.29828 8.50084 4.21753 8.35719 4.07384L6.73217 2.44805C6.65617 2.3781 6.59511 2.29352 6.55263 2.19937C6.51016 2.10522 6.48717 2.00345 6.48503 1.90019C6.48289 1.79693 6.50165 1.6943 6.54018 1.59847C6.57872 1.50265 6.63623 1.4156 6.70927 1.34257C6.7823 1.26953 6.86935 1.21202 6.96517 1.17349C7.061 1.13495 7.16363 1.11619 7.26689 1.11833C7.37015 1.12047 7.47192 1.14346 7.56607 1.18594C7.66021 1.22841 7.7448 1.28947 7.81475 1.36547L9.43977 2.99049C9.54689 3.09764 9.61983 3.23414 9.64938 3.38274C9.67893 3.53134 9.66375 3.68536 9.60578 3.82534C9.5478 3.96531 9.44963 4.08496 9.32367 4.16915C9.1977 4.25334 9.0496 4.29829 8.8981 4.29832H8.89886Z" fill="black"/>
<path d="M1.52316 24.135C1.33724 24.1351 1.15763 24.0676 1.01781 23.945C0.877987 23.8225 0.787502 23.6532 0.763218 23.4689C0.738934 23.2846 0.782508 23.0977 0.885818 22.9431C0.989129 22.7885 1.14512 22.6768 1.32473 22.6287L3.54659 22.0342C3.64398 22.0082 3.74553 22.0017 3.84545 22.015C3.94536 22.0283 4.04168 22.0611 4.1289 22.1116C4.21612 22.1622 4.29254 22.2293 4.3538 22.3094C4.41505 22.3894 4.45994 22.4808 4.48589 22.5782C4.51185 22.6756 4.51837 22.7771 4.50509 22.877C4.4918 22.9769 4.45896 23.0733 4.40845 23.1605C4.35793 23.2477 4.29074 23.3241 4.21069 23.3854C4.13064 23.4466 4.03932 23.4915 3.94192 23.5175L1.72007 24.1128C1.65566 24.1286 1.58948 24.1361 1.52316 24.135Z" fill="black"/>
<path d="M3.74342 29.4934C3.57477 29.4934 3.41083 29.4378 3.27703 29.3351C3.14324 29.2324 3.04705 29.0885 3.0034 28.9256C2.95975 28.7627 2.97107 28.5899 3.03561 28.4341C3.10014 28.2783 3.21429 28.1481 3.36034 28.0638L5.35235 26.9145C5.43952 26.8634 5.53593 26.8301 5.63604 26.8164C5.73615 26.8027 5.83798 26.8089 5.93566 26.8348C6.03334 26.8606 6.12496 26.9055 6.20522 26.9669C6.28548 27.0282 6.35281 27.1049 6.40334 27.1924C6.45386 27.2799 6.48657 27.3765 6.4996 27.4767C6.51262 27.5769 6.5057 27.6787 6.47922 27.7762C6.45275 27.8737 6.40725 27.965 6.34534 28.0449C6.28343 28.1248 6.20634 28.1916 6.11851 28.2415L4.1265 29.3908C4.01014 29.4583 3.87795 29.4937 3.74342 29.4934Z" fill="black"/>
<path d="M7.27393 34.0949C7.12242 34.0949 6.97432 34.05 6.84836 33.9658C6.7224 33.8816 6.62422 33.7619 6.56625 33.622C6.50827 33.482 6.4931 33.328 6.52265 33.1794C6.5522 33.0308 6.62514 32.8943 6.73226 32.7871L8.35728 31.1621C8.50177 31.0225 8.69531 30.9453 8.89619 30.9471C9.09708 30.9488 9.28924 31.0294 9.43129 31.1714C9.57334 31.3135 9.65392 31.5056 9.65566 31.7065C9.65741 31.9074 9.58018 32.1009 9.44062 32.2454L7.81484 33.8705C7.67137 34.014 7.47684 34.0947 7.27393 34.0949Z" fill="black"/>
</svg>
