<svg width="46" height="50" viewBox="0 0 46 50" fill="none" xmlns="http://www.w3.org/2000/svg">
<circle cx="22.5" cy="37.5" r="12.5" fill="#F3EC18"/>
<path d="M43.5086 18.2535C42.7225 18.1037 41.9088 18.2611 41.2352 18.6933C40.5616 19.1254 40.0793 19.7994 39.8878 20.5765L38.1494 27.0536C37.569 26.6863 36.8847 26.5186 36.2003 26.5759C35.5159 26.6331 34.8689 26.9122 34.3576 27.3708L27.676 31.5754C26.4667 32.331 25.4701 33.3826 24.7806 34.6308C24.0911 35.879 23.7314 37.2824 23.7356 38.7084V45.2038C23.7356 45.407 23.8164 45.6019 23.96 45.7456C24.1037 45.8893 24.2986 45.97 24.5018 45.97C24.705 45.97 24.8999 45.8893 25.0435 45.7456C25.1872 45.6019 25.2679 45.407 25.2679 45.2038V38.7084C25.2646 37.5418 25.5588 36.3936 26.1228 35.3725C26.6868 34.3513 27.502 33.4909 28.4912 32.8725C28.4912 32.8725 35.3353 28.5583 35.3751 28.5185C35.6672 28.24 36.0553 28.0847 36.4588 28.0847C36.8624 28.0847 37.2505 28.24 37.5426 28.5185C37.8224 28.7986 37.983 29.1762 37.9906 29.5722C37.9982 29.9681 37.8521 30.3516 37.5832 30.6422L32.489 34.2225C32.3227 34.3393 32.2096 34.5175 32.1746 34.7177C32.1396 34.9179 32.1856 35.1238 32.3024 35.2901C32.4193 35.4565 32.5974 35.5696 32.7976 35.6045C32.9978 35.6395 33.2037 35.5935 33.3701 35.4767C33.3701 35.4767 38.5945 31.7991 38.6259 31.7685C39.0403 31.3587 39.3273 30.8379 39.4525 30.2688C39.5777 29.6996 39.5357 29.1064 39.3315 28.5606L41.368 20.9756C41.4615 20.5796 41.7014 20.2335 42.0394 20.0068C42.3775 19.7802 42.7887 19.6897 43.1907 19.7536C43.5332 19.8269 43.8404 20.015 44.0615 20.2866C44.2826 20.5583 44.4044 20.8974 44.4066 21.2476C44.4077 21.3823 44.3907 21.5166 44.356 21.6468L41.702 31.557C41.5281 32.2067 41.1861 32.7991 40.7106 33.2748L35.2709 38.7145C34.7701 39.2115 34.3729 39.803 34.1025 40.4547C33.8321 41.1063 33.6938 41.8052 33.6957 42.5108V45.2038C33.6957 45.407 33.7764 45.6019 33.9201 45.7456C34.0638 45.8893 34.2586 45.97 34.4618 45.97C34.665 45.97 34.8599 45.8893 35.0036 45.7456C35.1473 45.6019 35.228 45.407 35.228 45.2038V42.5108C35.2267 42.0076 35.3253 41.5091 35.5179 41.0442C35.7106 40.5793 35.9935 40.1572 36.3504 39.8024L41.7947 34.3581C42.4596 33.6916 42.938 32.8623 43.1822 31.9531L45.8354 22.0437C45.943 21.6417 45.9675 21.222 45.9075 20.8102C45.8475 20.3984 45.7043 20.0031 45.4866 19.6485C45.2689 19.2939 44.9812 18.9873 44.6412 18.7474C44.3011 18.5076 43.9158 18.3395 43.5086 18.2535Z" fill="black"/>
<path d="M18.2637 31.5755L11.5813 27.3709C11.0776 26.8979 10.429 26.6086 9.74046 26.5499C9.05195 26.4913 8.36378 26.6666 7.78728 27.0475L6.0504 20.5766C5.85949 19.7993 5.3775 19.125 4.70389 18.6927C4.03027 18.2605 3.21644 18.1033 2.4303 18.2536C2.02353 18.3401 1.63859 18.5083 1.29885 18.7482C0.959114 18.988 0.671672 19.2944 0.453983 19.6487C0.236295 20.0031 0.0929043 20.398 0.03252 20.8094C-0.0278644 21.2209 -0.00398201 21.6403 0.102717 22.0422L2.75669 31.9533C3.00068 32.8627 3.47944 33.6921 4.14496 34.3582L9.58928 39.8025C9.94601 40.1574 10.2288 40.5795 10.4214 41.0444C10.6139 41.5093 10.7123 42.0077 10.7109 42.5109V45.2039C10.7109 45.4071 10.7917 45.602 10.9353 45.7457C11.079 45.8894 11.2739 45.9701 11.4771 45.9701C11.6803 45.9701 11.8752 45.8894 12.0188 45.7457C12.1625 45.602 12.2432 45.4071 12.2432 45.2039V42.5109C12.2451 41.8064 12.1073 41.1086 11.8377 40.4577C11.5681 39.8069 11.1721 39.216 10.6726 38.7192L5.22831 33.2749C4.75298 32.7991 4.41109 32.2067 4.2369 31.5571L1.58217 21.6438C1.52977 21.4429 1.51861 21.2334 1.54937 21.0281C1.58012 20.8227 1.65216 20.6257 1.76113 20.4489C1.87009 20.2721 2.01374 20.1193 2.18339 19.9995C2.35305 19.8798 2.5452 19.7957 2.74826 19.7522C3.15011 19.6891 3.56099 19.7798 3.89886 20.0063C4.23674 20.2329 4.47674 20.5785 4.57095 20.9742L6.60739 28.5592C6.40805 29.1054 6.36855 29.6972 6.49353 30.2651C6.6185 30.833 6.90278 31.3535 7.31302 31.7655C7.34367 31.797 12.5689 35.4737 12.5689 35.4737C12.6512 35.5316 12.7442 35.5727 12.8424 35.5946C12.9406 35.6165 13.0422 35.6189 13.1413 35.6016C13.2405 35.5843 13.3352 35.5476 13.4202 35.4936C13.5051 35.4397 13.5787 35.3695 13.6365 35.2872C13.6944 35.2048 13.7354 35.1119 13.7574 35.0137C13.7793 34.9154 13.7817 34.8139 13.7643 34.7147C13.747 34.6156 13.7103 34.5208 13.6564 34.4359C13.6024 34.3509 13.5323 34.2774 13.4499 34.2195L8.355 30.6393C8.08116 30.3449 7.93397 29.9548 7.94516 29.5529C7.95635 29.151 8.12504 28.7696 8.41484 28.491C8.70465 28.2124 9.09235 28.0588 9.49435 28.0633C9.89636 28.0679 10.2805 28.2303 10.5638 28.5155C10.6037 28.5553 17.4478 32.8696 17.4478 32.8696C18.4374 33.4882 19.2528 34.3491 19.8169 35.3709C20.3809 36.3926 20.6749 37.5414 20.671 38.7085V45.2039C20.671 45.4071 20.7517 45.602 20.8954 45.7457C21.0391 45.8894 21.2339 45.9701 21.4371 45.9701C21.6403 45.9701 21.8352 45.8894 21.9789 45.7457C22.1226 45.602 22.2033 45.4071 22.2033 45.2039V38.7085C22.2074 37.2826 21.8478 35.8793 21.1584 34.6311C20.4691 33.383 19.4728 32.3313 18.2637 31.5755Z" fill="black"/>
<path d="M23.7356 26.8162H26.0341C27.8622 26.8142 29.6149 26.087 30.9076 24.7943C32.2003 23.5016 32.9275 21.7489 32.9295 19.9208V16.8561C32.9295 16.6529 32.8488 16.4581 32.7051 16.3144C32.5614 16.1707 32.3665 16.09 32.1633 16.09H29.0987C28.0694 16.0902 27.0532 16.3214 26.1251 16.7664C25.1969 17.2113 24.3804 17.8589 23.7356 18.6612V15.2847C25.6913 15.0882 27.4967 14.1475 28.7783 12.6572C30.06 11.167 30.7198 9.24113 30.6214 7.27802C30.523 5.31491 29.6739 3.4647 28.2497 2.11007C26.8254 0.755437 24.935 0 22.9694 0C21.0039 0 19.1135 0.755437 17.6892 2.11007C16.265 3.4647 15.4159 5.31491 15.3175 7.27802C15.2191 9.24113 15.8789 11.167 17.1606 12.6572C18.4422 14.1475 20.2476 15.0882 22.2033 15.2847V20.9597C21.5585 20.1573 20.742 19.5098 19.8138 19.0648C18.8857 18.6198 17.8695 18.3887 16.8402 18.3885H13.7756C13.5724 18.3885 13.3775 18.4692 13.2338 18.6129C13.0901 18.7565 13.0094 18.9514 13.0094 19.1546V22.2192C13.0116 24.0473 13.7388 25.7999 15.0315 27.0926C16.3241 28.3852 18.0767 29.1124 19.9048 29.1147H22.2033V32.9454C22.2033 33.1486 22.284 33.3435 22.4277 33.4872C22.5714 33.6309 22.7663 33.7116 22.9694 33.7116C23.1726 33.7116 23.3675 33.6309 23.5112 33.4872C23.6549 33.3435 23.7356 33.1486 23.7356 32.9454V26.8162ZM29.0987 17.6223H31.3972V19.9208C31.3956 21.3427 30.83 22.7058 29.8246 23.7113C28.8191 24.7167 27.456 25.2822 26.0341 25.2839H23.7356V22.9854C23.7372 21.5635 24.3028 20.2003 25.3082 19.1949C26.3136 18.1895 27.6768 17.6239 29.0987 17.6223ZM16.8402 7.66225C16.8402 6.44999 17.1997 5.26496 17.8732 4.25701C18.5466 3.24906 19.5039 2.46346 20.6239 1.99955C21.7439 1.53564 22.9762 1.41426 24.1652 1.65076C25.3542 1.88726 26.4463 2.47101 27.3035 3.3282C28.1607 4.1854 28.7444 5.27753 28.9809 6.46649C29.2174 7.65545 29.0961 8.88784 28.6321 10.0078C28.1682 11.1278 27.3826 12.085 26.3747 12.7585C25.3667 13.432 24.1817 13.7915 22.9694 13.7915C21.3444 13.7897 19.7865 13.1433 18.6374 11.9943C17.4884 10.8452 16.842 9.28727 16.8402 7.66225ZM19.9048 27.5823C18.4829 27.5807 17.1197 27.0152 16.1143 26.0097C15.1089 25.0043 14.5433 23.6411 14.5417 22.2192V19.9208H16.8402C18.2621 19.9224 19.6253 20.488 20.6307 21.4934C21.6361 22.4988 22.2017 23.862 22.2033 25.2839V27.5823H19.9048Z" fill="black"/>
</svg>
