<svg width="34" height="34" viewBox="0 0 34 34" fill="none" xmlns="http://www.w3.org/2000/svg">
<circle cx="26.5" cy="25.5" r="8.5" fill="#F3EC18"/>
<path d="M33.4333 19.2654C33.1203 19.2654 32.8667 19.519 32.8667 19.8321V20.9654C32.8667 21.904 32.1052 22.6654 31.1667 22.6654H29.4667V15.8654H31.1667C32.1052 15.8654 32.8667 16.6269 32.8667 17.5654C32.8667 17.8785 33.1203 18.1321 33.4333 18.1321C33.7464 18.1321 34 17.8785 34 17.5654C33.9986 16.2196 33.0515 15.06 31.7333 14.7888V14.7321C31.7369 11.0615 30.3662 7.52196 27.892 4.81117C27.6781 4.58309 27.3197 4.57104 27.0909 4.78496C26.8671 4.99463 26.8508 5.34384 27.0541 5.57405C29.3385 8.0773 30.6035 11.3441 30.6 14.7328H29.4667C29.4667 7.8478 23.885 2.26613 17 2.26613C10.115 2.26613 4.53333 7.84709 4.53333 14.7321H3.4C3.4085 7.22446 9.49238 1.14059 17 1.13209C20.0671 1.12146 23.0463 2.15917 25.4433 4.07309C25.6884 4.26788 26.0447 4.2268 26.2395 3.981C26.4343 3.73592 26.3932 3.37963 26.1474 3.18484C23.5507 1.11154 20.3235 -0.0132888 17 -0.00124709C8.86692 0.00796125 2.27588 6.599 2.26667 14.7321V14.7888C0.948458 15.06 0.00141667 16.2196 0 17.5654V20.9654C0.002125 22.5294 1.26933 23.7966 2.83333 23.7988H4.53333C4.53333 25.0504 5.54838 26.0654 6.8 26.0654H8.5C8.81308 26.0654 9.06667 25.8118 9.06667 25.4988V23.2321C9.06667 22.919 8.81308 22.6654 8.5 22.6654C8.18692 22.6654 7.93333 22.919 7.93333 23.2321V24.9321H6.8C6.17383 24.9321 5.66667 24.4249 5.66667 23.7988V20.9654C5.66667 20.6523 5.41308 20.3988 5.1 20.3988C4.78692 20.3988 4.53333 20.6523 4.53333 20.9654V22.6654H2.83333C1.89479 22.6654 1.13333 21.904 1.13333 20.9654V17.5654C1.13333 16.6269 1.89479 15.8654 2.83333 15.8654H4.53333V18.6988C4.53333 19.0118 4.78692 19.2654 5.1 19.2654C5.41308 19.2654 5.66667 19.0118 5.66667 18.6988V14.7321C5.66667 14.1059 6.17383 13.5988 6.8 13.5988H7.93333V20.9654C7.93333 21.2785 8.18692 21.5321 8.5 21.5321C8.81308 21.5321 9.06667 21.2785 9.06667 20.9654V13.0321C9.06667 12.719 8.81308 12.4654 8.5 12.4654H6.8C6.47629 12.4668 6.15683 12.5377 5.86358 12.6737C6.9955 6.52321 12.8987 2.45525 19.0492 3.58646C23.6704 4.43717 27.2864 8.0525 28.1364 12.6737C27.8432 12.5377 27.523 12.4661 27.2 12.4654H25.5C25.1869 12.4654 24.9333 12.719 24.9333 13.0321V25.4988C24.9333 25.8118 25.1869 26.0654 25.5 26.0654H27.2C28.4516 26.0654 29.4667 25.0504 29.4667 23.7988H30.0333V26.0654C30.0305 28.881 27.749 31.1626 24.9333 31.1654H23.7192C23.4614 30.1674 22.5632 29.469 21.5333 29.4654H19.2667C18.015 29.4654 17 30.4805 17 31.7321C17 32.9837 18.015 33.9988 19.2667 33.9988H21.5333C22.564 33.9952 23.4621 33.2968 23.7192 32.2988H24.9333C28.3744 32.2945 31.1624 29.5065 31.1667 26.0654V23.7988C32.7307 23.7966 33.9979 22.5294 34 20.9654V19.8321C34 19.519 33.7464 19.2654 33.4333 19.2654ZM28.3333 23.7988C28.3333 24.4249 27.8262 24.9321 27.2 24.9321H26.0667V13.5988H27.2C27.8262 13.5988 28.3333 14.1059 28.3333 14.7321V23.7988ZM21.5333 32.8654H19.2667C18.6405 32.8654 18.1333 32.3583 18.1333 31.7321C18.1333 31.1059 18.6405 30.5988 19.2667 30.5988H21.5333C22.1595 30.5988 22.6667 31.1059 22.6667 31.7321C22.6667 32.3583 22.1595 32.8654 21.5333 32.8654Z" fill="black"/>
<path d="M23.8002 19.2666C23.8023 17.8903 23.3837 16.5459 22.601 15.4132C22.4281 15.1519 22.0768 15.0803 21.8154 15.2531C21.554 15.426 21.4825 15.7773 21.6553 16.0387C21.6596 16.0444 21.6631 16.0507 21.6674 16.0564C23.4439 18.6376 22.7922 22.17 20.211 23.9465C17.6299 25.723 14.0974 25.0714 12.3209 22.4902C10.5444 19.909 11.1961 16.3766 13.7773 14.6001C15.7138 13.267 18.2723 13.2663 20.2096 14.5986C20.466 14.7779 20.8195 14.7162 20.9987 14.4598C21.1779 14.2034 21.1163 13.8499 20.8599 13.6707C20.8578 13.6693 20.8556 13.6679 20.8535 13.6665C17.7588 11.5386 13.5258 12.3214 11.3973 15.4161C9.26872 18.5108 10.0521 22.7438 13.1468 24.8723C16.2415 27.0009 20.4745 26.2174 22.6031 23.1227C23.383 21.9873 23.8009 20.6436 23.8002 19.2666Z" fill="black"/>
</svg>
