<svg width="80" height="15" viewBox="0 0 80 15" fill="none" xmlns="http://www.w3.org/2000/svg">
<path fill-rule="evenodd" clip-rule="evenodd" d="M30.8593 3.49558H28.4191L25.8417 5.6029L24.6186 6.60255L23.264 7.71002V3.49072H21.6189V11.7384H23.264V9.70448L25.5949 7.80326L28.7811 11.7384H30.8155L26.8124 6.80342L30.8593 3.49558ZM39.9259 10.2783L36.0596 3.50081L32.1934 10.2783L31.3545 11.7533H33.2023L34.0469 10.2783L36.0596 6.74493L38.0722 10.2783L38.9168 11.7533H40.7648L39.9259 10.2783ZM44.8893 4.97096H49.5068V3.50081H44.8893C42.3393 3.50081 40.2718 5.34822 40.2718 7.62706C40.2718 9.90591 42.3393 11.7533 44.8893 11.7533H49.5068V10.2832H44.8893C43.2496 10.2832 41.917 9.09236 41.917 7.62706C41.917 6.16177 43.2496 4.97096 44.8893 4.97096ZM60.0653 3.49595H57.6251L55.0477 5.60308L53.8246 6.60293L52.47 7.7104V3.4911H50.8249V11.7386H52.47V9.70486L54.8009 7.80364L57.987 11.7386H60.0215L56.0183 6.80379L60.0653 3.49595ZM69.1319 10.2783L65.2656 3.50081L61.3994 10.2783L60.5602 11.7533H62.4083L63.2529 10.2783L65.2656 6.74493L67.2782 10.2783L68.1228 11.7533H69.9708L69.1319 10.2783ZM75.3879 3.50324H70.7706V11.7509H75.3879C76.6602 11.7509 77.8119 11.2903 78.6454 10.5405C78.7388 10.4571 78.8264 10.3689 78.9087 10.2807C79.5942 9.56528 80 8.6342 80 7.62463C80 5.34598 77.9326 3.50324 75.3879 3.50324ZM75.3879 10.2807H72.4158V4.97339H75.3879C77.0222 4.97339 78.3549 6.1642 78.3549 7.62463C78.3549 9.08993 77.0222 10.2807 75.3879 10.2807Z" fill="black"/>
<path fill-rule="evenodd" clip-rule="evenodd" d="M0.842773 8.65576H4.2127L9.43585 14.8011H0.926998L0.842773 8.65576Z" fill="#C93027"/>
<path fill-rule="evenodd" clip-rule="evenodd" d="M6.23421 8.58902L12.2157 14.7346L20.8087 14.8013L13.3109 7.65401L20.9772 0.372952H12.6369L8.42462 4.44763V0.306152H0L11.289 8.65591L6.23421 8.58902Z" fill="black"/>
<rect x="33" y="9" width="6" height="1" fill="black"/>
<rect x="63" y="9" width="5" height="1" fill="black"/>
</svg>
