<svg width="35" height="35" viewBox="0 0 35 35" fill="none" xmlns="http://www.w3.org/2000/svg">
<circle cx="26.5" cy="26.5" r="8.5" fill="#F3EC18"/>
<path d="M7.93262 13.1448H9.06595V14.2721H7.93262V13.1448Z" fill="black"/>
<path d="M13.5996 13.1448H14.7329V14.2721H13.5996V13.1448Z" fill="black"/>
<path d="M33.5132 19.3504L31.2989 19.0362C31.1934 18.7283 31.0694 18.4267 30.9263 18.1343L32.2658 16.3574C32.4351 16.1334 32.4124 15.8191 32.2134 15.6204L29.8093 13.2291C29.7172 13.1382 29.5954 13.0811 29.4658 13.0699V7.64392C30.5396 6.78857 31.1651 5.49426 31.1658 4.12598C31.1764 2.38145 30.1642 0.791222 28.5747 0.0542356C28.2913 -0.0789292 27.9542 0.0415533 27.8203 0.323383C27.7842 0.398068 27.7658 0.480504 27.7658 0.563644V3.72014L26.6324 4.09639L25.4991 3.72014V0.563644C25.4977 0.252221 25.2427 0.00139245 24.9303 0.00209702C24.8474 0.00209702 24.766 0.0211206 24.6909 0.0563493C23.1014 0.792631 22.0892 2.38215 22.0991 4.12598C22.0998 5.49426 22.7253 6.78857 23.7991 7.64392V11.4536H22.0991C21.8172 11.4536 21.5785 11.6593 21.5381 11.9369L21.1712 14.4896L22.2932 14.6488L22.59 12.5802H25.0075L25.3043 14.6488C25.3362 14.8679 25.4934 15.0483 25.7066 15.1096C26.1791 15.2456 26.6353 15.4316 27.0666 15.6662C27.2614 15.7726 27.5015 15.7557 27.6793 15.6225L29.3574 14.3712L31.0666 16.0714L29.8058 17.7405C29.6726 17.9173 29.6549 18.1555 29.7618 18.3499C29.997 18.779 30.1847 19.2328 30.3214 19.7027C30.3838 19.9148 30.5651 20.0712 30.7847 20.1029L32.8643 20.3981V22.8029L30.7847 23.0981C30.5644 23.1298 30.383 23.2862 30.3214 23.4983C30.1847 23.9682 29.9977 24.422 29.7618 24.8511C29.6549 25.0448 29.6719 25.2837 29.8058 25.4605L31.0638 27.1297L29.3545 28.8298L27.6779 27.5743C27.5001 27.4418 27.2607 27.4242 27.0652 27.5306C26.6338 27.7645 26.1777 27.9512 25.7052 28.0872C25.492 28.1492 25.3348 28.3296 25.3029 28.548L25.0075 30.618H22.6657V28.2344C22.665 27.6391 22.5793 27.0465 22.4107 26.4751C25.147 27.272 28.0144 25.7114 28.8155 22.9896C29.6166 20.2678 28.0477 17.4157 25.3114 16.6188C22.5751 15.8219 19.7077 17.3826 18.9066 20.1043C18.6778 20.8808 18.6375 21.6995 18.7876 22.4943C18.7742 22.4886 18.7607 22.4816 18.7472 22.4766L14.1657 20.6539V19.7873C14.9229 19.4019 15.5937 18.8678 16.137 18.2168H17.5657C18.5043 18.2168 19.2657 17.4594 19.2657 16.5258V15.2949C19.9422 15.0568 20.3962 14.4219 20.3991 13.7075V12.0165C20.3962 11.3028 19.9422 10.6673 19.2657 10.4291V9.76188C19.2657 5.40337 15.7142 1.87063 11.3324 1.87063C6.95065 1.87063 3.39906 5.40408 3.39906 9.76258V10.4298C2.7226 10.668 2.26856 11.3028 2.26573 12.0172V13.7082C2.26573 14.6418 3.02719 15.3992 3.96573 15.3992H5.09906C5.13519 15.3992 5.17061 15.3935 5.20602 15.3914C5.55948 17.2853 6.77569 18.9094 8.49907 19.788V20.6546L3.91756 22.4774C1.54535 23.4123 -0.00944189 25.6966 -0.000941885 28.2344V33.4363C-0.000941885 33.7477 0.252642 34 0.565725 34H22.0991C22.4122 34 22.6657 33.7477 22.6657 33.4363V31.7453H25.4991C25.781 31.7453 26.0197 31.5396 26.0601 31.262L26.376 29.0595C26.6855 28.9545 26.9887 28.8312 27.2827 28.6889L29.0691 30.0212C29.2943 30.1896 29.6103 30.1671 29.81 29.9691L32.2141 27.5778C32.4131 27.3798 32.4358 27.0655 32.2665 26.8408L30.927 25.0639C31.0694 24.7715 31.1941 24.4699 31.2996 24.162L33.5139 23.8478C33.7923 23.8076 33.9991 23.5701 33.9998 23.2904V19.9085C33.9991 19.628 33.7923 19.3899 33.5132 19.3504ZM27.2798 14.51C27.2529 14.4973 27.2232 14.4889 27.1963 14.4762V7.50794H26.0658V11.9778L26.0601 11.9369C26.0197 11.6593 25.781 11.4536 25.4991 11.4536H24.9324V7.36139C24.9324 7.17679 24.8418 7.00417 24.6895 6.89848C23.1481 5.83105 22.7692 3.72367 23.8416 2.19051C23.9925 1.97491 24.1688 1.77692 24.3657 1.60148V4.12527C24.3657 4.36765 24.5216 4.58325 24.7532 4.66005L26.4532 5.22371C26.5694 5.26246 26.6948 5.26246 26.8116 5.22371L28.5116 4.66005C28.7433 4.58395 28.8991 4.36835 28.8991 4.12598V1.60219C30.2995 2.84647 30.4206 4.98486 29.1697 6.3771C28.9926 6.57367 28.7935 6.74982 28.5754 6.9006C28.4238 7.00558 28.3331 7.1775 28.3324 7.36139V13.7265L27.2798 14.51ZM19.8324 21.5995C19.8168 19.4047 21.5926 17.613 23.7991 17.5975C26.0055 17.582 27.8068 19.3483 27.8224 21.5431C27.838 23.7378 26.0622 25.5296 23.8557 25.5451C23.1021 25.55 22.3619 25.3436 21.7215 24.9483C21.3298 24.324 20.8283 23.7752 20.2418 23.3264C19.972 22.7902 19.8317 22.199 19.8324 21.5995ZM17.5657 17.0902H16.878C17.1542 16.5554 17.3497 15.9826 17.4588 15.3914C17.4942 15.3914 17.5296 15.3992 17.5657 15.3992H18.1324V16.5265C18.1324 16.8379 17.8788 17.0902 17.5657 17.0902ZM16.4324 10.8899C15.8976 10.8885 15.394 10.6384 15.0724 10.2135L14.0524 8.86073C13.9603 8.73883 13.8229 8.65922 13.6706 8.63949C13.5183 8.62117 13.3653 8.66344 13.2449 8.75856L11.343 10.2699C10.8415 10.6694 10.2182 10.8878 9.57573 10.8899H6.2324V10.3262C6.2324 7.52485 8.51607 5.2533 11.3324 5.2533C14.1487 5.2533 16.4324 7.52485 16.4324 10.3262V10.8899ZM19.2657 13.7082C19.2657 14.0196 19.0122 14.2719 18.6991 14.2719H17.5657V11.4536H18.6991C19.0122 11.4536 19.2657 11.7058 19.2657 12.0172V13.7082ZM11.3324 2.99866C15.0866 3.00288 18.1282 6.02833 18.1324 9.76258V10.3262H17.5657C17.5657 6.902 14.7749 4.12598 11.3324 4.12598C7.8899 4.12598 5.09906 6.902 5.09906 10.3262H4.5324V9.76258C4.53665 6.02833 7.57823 3.00288 11.3324 2.99866ZM3.96573 14.2719C3.65265 14.2719 3.39906 14.0196 3.39906 13.7082V12.0172C3.39906 11.7058 3.65265 11.4536 3.96573 11.4536H5.09906V14.2719H3.96573ZM6.2324 14.2719V12.0172H9.57573C10.476 12.0158 11.3494 11.7114 12.0535 11.1527L13.4992 10.0021L14.1664 10.8899C14.7027 11.598 15.542 12.0151 16.4331 12.0172V14.2719C16.4338 15.2759 16.1335 16.2574 15.5704 17.0902H11.3324V18.2175H14.5305C12.3425 19.9775 9.13444 19.6393 7.36502 17.4629C6.63119 16.5596 6.23169 15.433 6.2324 14.2719ZM11.3324 20.4721C11.9076 20.4707 12.4799 20.3897 13.0324 20.2319V21.0358C13.0324 21.9694 12.2709 22.7268 11.3324 22.7268C10.3939 22.7268 9.6324 21.9694 9.6324 21.0358V20.2319C10.1849 20.3897 10.7572 20.4707 11.3324 20.4721ZM21.5324 32.8727H18.1324V26.6724H16.9991V32.8727H5.66573V26.6724H4.5324V32.8727H1.13239V28.2344C1.12531 26.1581 2.39748 24.2888 4.33831 23.5236L8.62373 21.8186C9.04873 23.3059 10.6057 24.1697 12.1009 23.747C13.0395 23.4821 13.7733 22.7521 14.0397 21.8186L18.3251 23.5236C20.2659 24.2888 21.5381 26.1574 21.531 28.2344V32.8727H21.5324Z" fill="black"/>
<path d="M23.2324 13.7084H24.3658V14.8357H23.2324V13.7084Z" fill="black"/>
<path d="M23.2324 28.3635H24.3658V29.4908H23.2324V28.3635Z" fill="black"/>
<path d="M28.2002 26.7808L29.0013 25.9839L29.8024 26.7808L29.0013 27.5776L28.2002 26.7808Z" fill="black"/>
<path d="M30.5996 21.036H31.7329V22.1633H30.5996V21.036Z" fill="black"/>
<path d="M28.2021 16.4197L29.0033 15.6228L29.8044 16.4197L29.0033 17.2166L28.2021 16.4197Z" fill="black"/>
</svg>
