<svg width="17" height="17" viewBox="0 0 17 17" fill="none" xmlns="http://www.w3.org/2000/svg">
<g clip-path="url(#clip0_1_720)">
<path d="M8.5 0C3.80558 0 0 3.80558 0 8.50003C0 10.2766 0.545395 11.9257 1.47744 13.2896L0.360951 16.639L3.71038 15.5226C5.0743 16.4546 6.72333 17 8.5 17C13.1944 17 17 13.1944 17 8.50003C17 3.80558 13.1944 0 8.5 0Z" fill="#FADD05"/>
<path d="M12.4758 11.0417C11.8341 10.4 11.1468 9.85983 11.1468 9.85983L10.1455 10.8612L6.13877 6.85444L7.14014 5.85311C7.14014 5.85311 6.6 5.1658 5.95831 4.52412C5.31663 3.88247 4.62936 3.34229 4.62936 3.34229C4.62936 3.34229 3.4295 4.44609 3.34881 5.32152C3.24084 6.49336 4.48124 8.62387 6.42867 10.5713C8.3761 12.5187 10.5066 13.7591 11.6784 13.6511C12.5539 13.5704 13.6577 12.3706 13.6577 12.3706C13.6577 12.3706 13.1175 11.6834 12.4758 11.0417Z" fill="#1B4145"/>
</g>
<defs>
<clipPath id="clip0_1_720">
<rect width="17" height="17" fill="white"/>
</clipPath>
</defs>
</svg>
