<svg width="12" height="11" viewBox="0 0 12 11" fill="none" xmlns="http://www.w3.org/2000/svg">
<g clip-path="url(#clip0_12_1289)">
<path d="M11.9677 4.15636C11.8888 3.92387 11.6732 3.75944 11.4191 3.73743L7.95531 3.43642L6.58624 0.370643C6.48502 0.145337 6.25512 0 5.99915 0C5.74319 0 5.51305 0.145337 5.41278 0.370643L4.0437 3.43664L0.578969 3.73743C0.325114 3.75989 0.110007 3.92432 0.0303985 4.15636C-0.0485055 4.38886 0.0242928 4.64382 0.216386 4.80488L2.83501 7.00133L2.06288 10.254C2.00628 10.4932 2.10351 10.7406 2.31086 10.8839C2.42241 10.9614 2.55345 11 2.68495 11C2.79791 11 2.9111 10.9712 3.01208 10.9135L5.99915 9.20497L8.98576 10.9135C9.20486 11.0389 9.48032 11.0272 9.68744 10.8839C9.8948 10.7403 9.99202 10.493 9.93543 10.254L9.16329 7.00133L11.7819 4.80488C11.9738 4.64359 12.0468 4.38931 11.9677 4.15636Z" fill="black"/>
</g>
<defs>
<clipPath id="clip0_12_1289">
<rect width="12" height="11" fill="white"/>
</clipPath>
</defs>
</svg>
