<svg width="31" height="31" viewBox="0 0 31 31" fill="none" xmlns="http://www.w3.org/2000/svg">
<circle cx="15.5" cy="15.5" r="15.5" fill="#F8F8F8"/>
<path d="M15.4895 26.9341C21.8001 26.9341 26.9341 21.8 26.9341 15.4895C26.9341 9.17894 21.8001 4.04523 15.4895 4.04523C9.17899 4.04523 4.04492 9.17894 4.04492 15.4895C4.04492 21.8 9.17899 26.9341 15.4895 26.9341ZM15.4895 5.40313C21.0511 5.40313 25.5759 9.92796 25.5759 15.4895C25.5759 21.051 21.0511 25.5758 15.4895 25.5758C9.92801 25.5758 5.40318 21.051 5.40318 15.4895C5.40318 9.92796 9.92801 5.40313 15.4895 5.40313Z" fill="#FADD05"/>
<path d="M12.0087 20.3611C12.4083 20.7603 12.9392 20.9803 13.504 20.9803C14.0687 20.9803 14.5996 20.7603 14.9992 20.3608L16.7866 18.5726C17.051 18.3068 17.0507 17.8769 16.7849 17.6121C16.5194 17.3474 16.0895 17.3481 15.8248 17.6135L14.0387 19.4007C13.8958 19.5436 13.7059 19.6223 13.504 19.6223C13.3017 19.6223 13.1118 19.5436 12.9692 19.4007L10.8037 17.2352C10.4715 16.9034 10.4715 16.3633 10.8037 16.0315C11.1355 15.6993 11.6755 15.6993 12.0073 16.0315L12.8464 16.8705C13.2082 17.232 13.7962 17.232 14.158 16.8705L18.9705 12.058C19.3023 11.7262 19.8424 11.7262 20.1745 12.0584C20.5063 12.3902 20.5063 12.9302 20.1745 13.262L18.0503 15.387C17.7856 15.652 17.7856 16.082 18.0507 16.3474C18.3157 16.6125 18.7457 16.6121 19.0111 16.3471L21.135 14.2221C21.9963 13.3609 21.9959 11.9592 21.1346 11.0979C20.273 10.2363 18.8717 10.2367 18.0101 11.0979L13.5022 15.6058L12.9674 15.071C12.1062 14.2098 10.7045 14.2098 9.84322 15.071C8.98195 15.9323 8.98195 17.334 9.84322 18.1956L12.0087 20.3611Z" fill="black"/>
</svg>
